<!-- Generator: Adobe Illustrator 19.2.0, SVG Export Plug-In  -->
<svg version="1.1"
	 xmlns="http://www.w3.org/2000/svg" xmlns:xlink="http://www.w3.org/1999/xlink" xmlns:a="http://ns.adobe.com/AdobeSVGViewerExtensions/3.0/"
	 x="0px" y="0px" width="510.332px" height="502.665px" viewBox="0 0 510.332 502.665"
	 style="enable-background:new 0 0 510.332 502.665;" xml:space="preserve">
<style type="text/css">
	.st0{fill:#FFFFFF;stroke:#000000;}
	.st1{fill:#FFFFFF;}
	.st2{fill:#00B259;}
	.st3{fill:#FAC8CB;}
	.st4{stroke:#000000;}
	.st5{stroke:#FFFFFF;}
	.st6{fill:#FFFFFF;stroke:#FFFFFF;}
	.st7{fill:#C7C8CA;}
	.st8{fill:#FFFFFF;stroke:#FFFFFF;stroke-linecap:round;stroke-linejoin:round;}
	.st9{fill-rule:evenodd;clip-rule:evenodd;}
</style>
<defs>
</defs>
<g>
	<path d="M443.441,268.544c0.067,0.327-0.133,0.64-0.25,0.889c0.434,0,0.748,1.331,0.932,1.723
		c1.976,4.936,4.254,10.51,3.689,16.502c-0.582,7.088-2.86,13.118-5.948,18.863c-0.317,0.574-0.767,1.018-1.099,1.526
		c-1.196,2.077-2.393,4.1-3.589,6.254c-0.565,0.626-1.03,1.331-1.528,2.103c-2.643,4.674-5.119,11.893-4.688,18.093
		c0.449,6.202,4.555,11.188,9.057,15c2.027,1.696,5.451,4.751,5.899,7.206c0.565,2.022-0.714,3.994-1.661,5.312
		c-0.697,0.836-1.512,1.658-2.326,2.469c-1.729,1.722-3.557,3.484-5.318,5.261c-2.345,2.322-5.018,4.36-7.346,6.579
		c-4.817,4.556-10.053,9.047-15.371,12.845c-0.832,0.64-1.729,1.202-2.544,1.632c-0.431,0.457-0.881,0.902-1.378,1.267
		c-2.676,1.907-5.519,3.63-8.043,5.705c-0.633,0.574-1.264,0.706-1.646,1.593c-1.03,0-2.975,1.385-3.855,1.762l-0.381,0.184
		c0,0.312-0.449,0.641-0.715,0.77c-5.303,2.964-10.438,6.384-15.688,9.309c-2.078,1.137-4.305,2.336-6.631,3.395
		c-1.779,0.9-7.545,3.629-7.795,3.746c-2.542,0.939-4.869,2.468-7.412,3.617c-2.01,0.887-7.844,2.4-9.04,3.916
		c-1.197,0-2.774,0.639-3.606,1.317c0,0.065,0,0.196,0,0.274c-1.711-0.078-3.357,0.627-4.752,1.384c0-0.262-0.184,0-0.449,0.065
		c-1.312,0.184-4.802,1.331-5.684,2.258l-0.631,0.08c-0.946,0.064-1.979,0.312-2.609,0.939l-0.615,0.143
		c0-0.574-3.623,0.875-4.188,1.632c-1.33,0-2.575,0.066-3.672,0.691c-1.446,0-3.591,0.458-4.688,1.201
		c-2.393-0.117-4.237,1.345-6.564,1.28c0,0.064,0,0.184,0,0.248c-0.631,0-2.857,0.627-3.423,0.875c-1.395,0-3.29,0.457-4.437,1.018
		c-1.264-0.064-3.291,0.145-3.99,1.083c-0.947,0.054-2.143-0.573-2.958,0.445c-0.564-0.079-1.096-0.445-1.727-0.079
		c-0.996-0.039-2.51,0.273-3.391,0.77c-0.466,0.066-0.848,0.118-1.28,0.118c-0.447,0.065-0.829,0.209-1.263,0.274
		c-1.014-0.065-2.791,0.039-3.423,0.875c-0.814,0-1.827-0.379-2.708-0.066c-0.965,0-2.293,0.131-2.992,0.574
		c-0.997-0.065-2.408,0-3.156,0.379c-1.082-0.065-4.938-0.131-5.701,0.248c-0.564-0.064-1.312,0.065-1.762,0.392
		c-0.582-0.065-1.279-0.261-1.911-0.065c-0.814-0.078-2.011-0.144-2.708,0.131c-1.347-0.066-4.62-0.131-5.7,0.248
		c-0.881,0-2.277-0.195-2.975,0.118c-1.146,0.065-3.292-0.366-4.238,0.13l-5.699-0.13c-0.699,0-3.606-0.314-4.172-0.118
		c-1.279,0-2.659-0.195-3.74-0.065c-0.048-0.249-1.645-0.314-2.343-0.131c-3.224-0.184-10.253-0.574-10.818-0.758
		c-1.131-0.065-2.276-0.248-3.356-0.379c-1.063-0.117-2.144-0.326-3.224-0.391c-7.146-0.809-14.06-1.945-21.072-3.146
		c-2.229-0.391-7.844-1.723-8.045-1.723l-1.877-0.432c-3.307-0.443-6.665-1.462-9.888-2.467c-4.753-1.514-9.556-2.533-14.375-4.125
		c-1.445-0.562-2.825-1.137-4.305-1.698c-0.881-0.261-1.761-0.521-2.642-0.768c-3.224-1.059-6.648-2.403-9.954-3.67l-8.21-3.211
		l-18.413-8.93c-2.543-1.514-4.936-2.91-7.412-4.438c-9.871-5.679-19.227-11.775-28.533-18.589c-1.213-0.836-8.608-6.84-9.622-6.658
		c-0.05,0-0.116,0-0.199,0c0.083-0.312,0-0.248-0.184-0.43c0.383,0,0.116-0.275,0-0.457c0.184,0-1.263-1.137-1.712-1.45
		c-3.29-2.845-6.446-5.704-9.804-8.604c-1.646-1.513-3.291-3.041-4.936-4.621c0-0.313-0.632-0.195-0.881-0.13
		c0-0.065,0-0.184,0-0.249c-0.251,0-0.384-0.704-0.499-0.952c-0.781-0.704-1.529-1.449-2.227-2.219
		c-1.646-2.024-3.739-4.035-5.817-6.006c-1.346-1.201-2.725-2.402-3.739-3.98c-0.498-0.771-0.947-1.973-0.631-3.043
		c0.631-3.107,5.684-6.449,8.227-7.91c1.329-0.823,2.525-2.023,3.789-3.043c4.304-3.537,8.99-7.35,9.688-13.276
		c0.581-4.438-1.846-7.924-3.723-11.331c-1.911-3.107-3.689-6.266-5.634-9.373c-2.36-3.852-4.371-8.473-6.082-12.729
		c-2.976-7.389-3.806-16.305-3.042-25.3c0.266-2.035,1.146-3.864,1.396-5.888c-0.066-0.771-0.066-1.514-0.066-2.284
		c-1.713-0.053-2.543,1.579-3.606,2.284c-0.499,0.184-1.08,0.457-1.579,0.574c-1.396,1.084-2.907,2.285-4.37,3.343
		c-0.899,0.77-1.961,1.841-2.726,2.61c-0.633,0.627-1.329,1.318-1.894,1.945c0,0.457-0.051,0.953-0.051,1.477
		c-3.108,0-9.123,13.654-9.954,16.305c-0.699,1.579-0.881,4.686-2.212,5.64c-1.894,1.2-6.447-4.491-8.541-4.74
		c0-1.645-3.041-4.308-4.121-5.64c-1.196-2.074-2.526-4.111-3.788-6.135c-0.2,0-0.317-0.064-0.449-0.064
		c-0.066,0.247,0.066,0.182-0.183,0.182c-0.066,0.836-0.947,1.332-1.014,2.153c-0.449,0-0.698,1.397-0.881,1.854
		c-2.544,6.633-2.858,17.075-1.978,24.479c0.897,7.846,4.504,15.442,7.478,22.4c2.211,5.641,4.37,11.396,6,17.402
		c0.631,2.219,2.227,7.65,1.595,10.182c-0.499,2.532-4.304,5.822-6.149,7.859c-1.195,1.448-2.261,3.146-3.407,4.673
		c-0.514,0.51-1.012,1.149-1.527,1.775c-0.317,0.575-0.317,1.319-0.682,1.775c0,0.065-0.066,0.065-0.133,0.118
		c-0.066,0-0.133,0.065-0.183,0.065c-0.066,0-0.133,0-0.201,0.065c-0.064,1.58-0.945,3.041-1.328,4.556
		c-0.898,4.556-0.183,11.07,1.014,14.986c1.08,2.989,3.358,6.032,5.318,8.29c1.014,1.201,1.894,2.545,2.858,3.485
		c4.104,4.06,8.292,8.042,12.381,11.841c0.896,0.822,1.978,1.527,2.858,2.336c0.447,0.51,0.881,0.953,1.379,1.449
		c0.715,0.641,1.595,1.279,2.426,1.973c3.358,3.289,7.08,6.213,10.753,8.863c1.528,1.137,2.841,2.533,4.305,3.537
		c0.432,0.196,0.879,0.445,1.328,0.693c8.907,7.088,18.414,13.732,28.418,19.176c1.063,0.576,2.144,1.646,3.206,2.337
		c4.256,2.468,8.676,4.935,12.98,7.22c1.213,0.641,2.409,1.318,3.605,2.088c3.673,1.711,7.412,3.539,11.151,5.328
		c2.908,1.317,5.948,2.584,8.924,4.033c2.774,1.332,6.332,2.101,8.991,3.732c0-0.246,0.631-0.312,0.814-0.43
		c0.066,0.312,0.066,0.561,0.066,0.887c2.276,0.811,4.486,1.632,6.764,2.403c5.118,2.075,10.586,3.525,15.703,5.431
		c2.261,0.705,4.486,1.266,6.765,1.906c1.129,0.377,2.275,0.691,3.356,1.082c1.131,0.248,2.326,0.562,3.423,0.744
		c6.133,1.842,12.58,3.486,18.912,4.688c0.698,0.064,1.396,0.064,2.028,0.064c1.893,0.379,3.605,0.953,5.301,1.463
		c1.978,0.43,4.255,0.875,6.148,1.201c3.872,0.691,7.661,1.123,11.518,1.514c0.83,0.131,1.596,0.379,2.343,0.443
		c5.5,0.641,10.885,1.201,16.336,1.842c6.064,0.312,12.463,0.365,18.546,0.627c3.771,0.117,7.645,0.443,11.384,0.326
		c4.869-0.209,9.672-0.393,14.607-0.523c0.631-0.117,1.346-0.182,1.978-0.312c1.627,0,3.355-0.117,5.002-0.064
		c1.246-0.248,2.574-0.367,3.856-0.576c2.142-0.182,4.485-0.246,6.513-0.43c1.379-0.248,2.725-0.443,4.055-0.561
		c1.945-0.275,3.922-0.457,5.867-0.705c7.411-1.201,14.889-2.533,22.152-4.06c2.857-0.562,5.783-1.266,8.674-1.697
		c1.779-0.51,3.607-1.018,5.385-1.514c12.148-2.781,23.797-6.973,35.381-10.967c2.525-1.006,5.234-2.075,7.777-3.158
		c2.276-0.693,14.674-6.58,14.74-6.255c1.197-0.573,2.543-1.199,3.807-1.904c3.174-1.515,6.131-3.107,9.305-4.753
		c2.013-0.939,3.988-1.775,5.934-3.041c0.83-0.432,1.529-0.81,2.358-1.24c1.446-0.836,2.827-1.594,4.354-2.481
		c3.424-1.958,6.763-3.929,10.254-6.018c7.545-4.556,14.675-9.739,21.703-15.13c2.527-1.762,5.068-3.525,7.463-5.365
		c2.028-1.723,4.237-3.421,6.281-5.117c2.458-2.221,4.869-4.309,7.461-6.594c0.766-0.705,1.895-1.266,2.727-2.154
		c0.365-0.494,5.617-5.182,6.646-6.447c1.444-1.906,3.158-3.422,4.553-5.445c2.145-3.551,3.788-6.971,5.004-11.017
		c0.498-1.631,1.195-3.356,1.262-5.234c0.051-2.676-0.248-5.457-0.764-7.924c-0.631-2.586-2.974-7.09-3.107-7.338
		c-1.895-3.105-3.789-6.135-5.684-9.112c-0.699-1.396-1.197-2.963-1.846-4.556c-0.516-1.645-0.631-4.111-0.248-6.019
		c0.697-3.851,2.161-7.14,3.538-10.626c2.161-5.496,4.486-10.953,6.649-16.33c0.515-1.385,0.897-2.782,1.328-4.165
		c1.828-4.438,2.542-9.126,3.424-14.126c0.449-2.767,1.062-5.939,1.265-8.967c0.066-1.279-0.202-5.889-0.384-6.907
		c-0.632-3.225-1.264-8.681-2.859-9.426c0,0-0.498-0.208-1.129,0.118c-0.748,0.51-1.13,1.397-1.695,1.893
		c-1.163,1.201-2.426,2.469-3.557,3.564c-1.96,1.828-6.58,5.432-6.779,5.432c-0.068,0.377-4.105,2.648-4.688,3.04
		c-0.498,0-0.996,0.065-1.445,0.065c-0.316-0.143-0.184-0.065-0.25-0.326c-1.262-5.117-3.107-10.117-5.882-14.674
		C459.511,275.777,452.415,270.021,443.441,268.544z"/>
	<path class="st0" d="M457.277,353.595c1.837,0.562,3.177,2.78,4.44,4.047c1.836,2.154,3.85,4.309,5.751,6.463
		c6.773,7.154,16.134,14.111,14.249,25.43c-0.272,2.102-0.56,4.19-1.405,6.018c-1.759,3.748-4.553,7.023-6.631,10.627
		c-0.574,0.992-1.597,1.633-2.283,2.533c-3.42,4.438-7.845,7.846-12.14,11.33c-5.017,4.112-9.891,8.604-15.272,12.207
		c-0.56,0.574-1.31,1.084-2.014,1.592c-2.972,1.959-5.75,4.178-8.786,6.201c-5.319,3.604-10.829,7.154-16.261,10.574
		c-17.174,10.483-35.593,18.982-54.426,25.744c-6.773,2.545-13.754,5.064-20.849,7.166c-1.947,0.562-3.976,1.307-5.989,1.828
		c-0.08,0-1.343,0.366-1.71,0.432c-1.261,0.248-2.458,0.639-3.626,1.018c-2.715,0.705-5.606,1.449-8.273,2.154
		c-1.901,0.561-4.104,0.496-5.703,1.332c-2.03,0-3.609,0.939-5.496,0.691c-0.062,0.312-0.877,0.51-1.15,0.562
		c-1.134,0-2.156,0.377-3.146,0.639c-0.895,0.064-1.837,0.131-2.73,0.248c0,0.065,0,0.131,0,0.195
		c-0.577,0.066-1.215-0.064-1.71,0.184c-1.199,0-4.184,0.705-5.255,0.887c-4.617,0.836-7.095,1.123-12.078,1.516
		c-2.429,0.195-3.609,0.639-5.447,0.639c-1.758,0-3.434,0.691-5.191,0.691c-1.07,0-2.221,0.145-3.355,0.184
		c-0.702,0.078-1.39,0.078-2.091,0.078c-1.328-0.078-3.339-0.117-4.428,0.312c-0.572,0-1.133,0.066-1.708,0
		c-3.481-0.064-11.39,0.314-11.646,0.314c0,0.065-1.15,0-1.709-0.066c-2.221-0.117-4.377-0.117-6.518-0.117
		c-4.745-0.064-9.809,0.066-14.553-0.443c-1.837-0.117-3.978-0.262-5.895-0.51c-1.198-0.129-2.332-0.248-3.482-0.443
		c-0.751,0-1.693-0.053-1.693-0.443c-2.476,0-4.617-0.248-7.156-0.379c-0.751,0.066-1.773-0.496-2.541-0.248
		c-1.197-0.064-2.331-0.379-3.418-0.639c-1.774-0.379-3.531-0.562-5.367-0.875c-1.902-0.209-3.674-0.705-5.575-0.836
		c-1.644-0.117-3.291-0.184-4.81-0.627c-6.58-1.463-13.226-2.91-19.872-4.426c-0.686-0.26-1.453-0.508-2.155-0.822
		c-11.822-2.78-23.036-6.658-34.154-10.756c-4.266-1.58-8.498-3.108-12.668-4.87c-7.269-3.238-14.425-6.775-21.581-10.262
		c-4.553-2.401-9.298-4.751-13.786-7.466c-1.661-0.953-3.292-2.023-4.872-2.978c-1.837-1.083-3.675-2.022-5.575-3.093
		c-5.128-3.603-10.513-7.023-15.703-10.628c-5.879-4.06-11.311-8.876-17.205-12.976c-3.035-2.599-5.959-5.325-9.059-7.91
		c-3.082-2.729-6.133-5.627-9.168-8.486c-4.872-4.309-9.872-8.916-12.396-14.739c-0.319-0.573-0.703-1.136-0.958-1.774
		c-0.448-1.084-0.688-2.533-0.942-3.734c-0.385-1.841-0.879-4.23-0.703-6.201c1.453-9.176,8.674-15.129,14.249-22.088
		c2.141-2.467,4.361-4.87,6.566-7.206c1.087-1.214,2.284-2.728,3.674-3.421c0.319-0.195,0.83-0.312,1.215-0.312
		c0.431,0,0.622,0.365,0.878,0.679c0.83,1.019,1.07,2.22,1.582,3.304c0.83,1.279,1.58,2.48,2.284,3.863
		c0.942,1.266,2.077,2.207,3.1,3.342c2.604,3.043,5.255,5.953,8.099,8.746c6.134,6.006,12.604,11.958,19.297,17.141
		c1.838,1.516,3.675,2.977,5.512,4.623c3.291,2.335,6.454,4.685,9.665,7.088c3.179,2.154,6.596,4.309,9.568,6.526
		c3.163,2.403,6.693,4.621,10.062,6.503c2.206,1.148,4.107,2.846,6.518,3.614c0.447,0.184,1.071,0.184,1.455,0.065
		c0,0.248,0,0.431,0,0.627c0,0.379,0.894,0.627,1.135,0.758c1.98,1.2,4.057,2.337,6.214,3.537c1.693,0.77,3.289,1.658,4.983,2.467
		l3.562,1.725c0.734,0,1.646,0.704,2.205,1.018c1.965,0.953,3.93,1.762,5.942,2.649c6.773,3.029,13.674,6.007,20.958,8.29
		c3.722,1.07,7.396,2.717,11.135,3.734c14.361,3.98,28.467,7.401,44.057,9.309c3.148,0.43,6.63,1.134,9.922,1.447
		c11.837,1.072,24.232,1.02,36.262,1.02l2.077-0.262c3.242,0.315,6.659-0.326,9.76-0.51c13.723-0.691,27.141-2.962,40-5.887
		c4.17-0.875,8.34-2.075,12.525-3.094c1.773-0.574,3.529-1.07,5.318-1.594c0.623-0.117,1.199-0.312,1.772-0.496
		c2.652-0.639,5.306-1.514,7.765-2.4c2.795-0.953,5.576-1.907,8.291-2.782c5.4-2.089,10.639-4.177,15.829-6.526
		c7.798-3.537,15.704-7.025,23.038-11.319c3.241-1.839,6.324-3.811,9.631-5.573c1.822-1.137,3.596-2.272,5.495-3.42
		c4.17-2.965,8.675-5.574,12.781-8.721c8.672-6.658,17.139-13.225,25.382-20.705c3.787-3.485,7.35-6.762,10.879-10.508
		c1.646-1.828,3.594-3.344,5.191-5.249C454.945,358.464,455.902,355.945,457.277,353.595z"/>
	<path d="M363.626,67.204c-0.991,0.836-2.011,1.841-3.095,2.468c-4.178,2.794-8.653,5.326-13.157,7.298
		c-2.272,0.874-4.557,1.239-6.84,1.879c-1.775,0.379-5.875,1.397-5.875,1.463c-0.51,0.052-1.396,0.183-1.79,0.443
		c-1.761-0.117-3.394,0.248-5.052,0.248c-0.952,0.065-2.964,0.262-2.964,0.314c-0.588-0.052-2.285-0.117-2.285-0.052
		c-0.246-0.065-1.696-0.444-1.903-0.444c-1.201-0.183-2.468-0.261-3.604-0.64c-1.828-0.496-3.668-1.201-5.496-1.906
		c-0.705-0.312-1.723-0.679-2.402-1.201c-0.953-0.561-4.44-2.323-7.088-3.094c-1.594-0.431-3.682,1.58-5.51,2.911
		c-2.102,1.267-4.256,2.337-6.266,3.786c-1.906,1.345-4.244,1.345-6.464,1.789c-1.331,0.247-2.597,0.183-3.732,0.639
		c-0.64,0.118-1.268,0.118-1.905,0.184c-0.745-0.065-2.338,0.248-2.338,0.248c-2.075,0.195-10-0.248-14.673-2.023
		c-2.154-0.836-4.308-1.58-6.268-2.599c-1.904-0.888-3.602-2.649-5.638-3.289c-0.118-0.065-0.184-0.065-0.248-0.065
		c-1.202-0.183-4.243,1.723-4.426,1.775c-1.658,0.757-3.237,1.462-4.752,2.219c-2.024,0.496-4.178,1.123-5.952,2.142
		c0-0.066-0.248-0.066-0.248,0c-0.444,0-1.28,0.261-1.645,0.392c-1.084-0.066-2.037,0.183-2.977,0.313
		c0,0.312-1.202,0.312-1.462,0.431c-0.497,0.065-1.006,0.065-1.515,0.13c-0.771,0-1.893-0.064-2.598,0.144
		c-0.613,0-1.253,0.118-1.894,0.248c-6.396-0.248-12.858-1.331-18.159-3.733c-1.514-1.019-3.027-1.905-4.503-2.729
		c-0.888-0.691-1.945-2.219-3.212-2.35c-0.953-0.052-2.036,0.457-2.728,0.836c-2.076,0.888-4.295,1.841-6.515,2.401
		c-2.219,0.64-4.309,1.136-6.527,1.658c-0.379,0-0.809,0.117-1.267,0.183c-0.745,0.065-3.145,0.248-3.851,0.562
		c-1.775,0-3.604,0.183-5.445,0c-2.101-0.131-4.11-0.431-6.082-0.627c-1.07-0.195-5.822-1.345-6.318-1.527
		c-1.084-0.312-2.089-0.626-3.172-1.018c-2.337-0.94-4.622-2.142-6.841-3.421c-1.201-0.431-2.271-1.058-3.407-1.763
		c-2.664-1.944-5.248-4.046-8.094-6.069c-0.705-0.379-1.724-0.497-2.48-0.184c-1.449,0.562-2.651,1.763-4.047,2.52
		c-2.782,1.646-5.51,3.551-8.225,5.196c-3.028,1.645-6.07,3.289-8.995,4.921c-3.916,2.429-7.78,4.752-11.813,7.037
		c-1.594,1.005-3.303,1.841-4.948,2.794c-3.343,1.879-6.906,3.981-10.248,6.07c-1.137,0.744-2.976,1.632-3.604,2.832
		c-0.639,0.836-0.325,2.677-0.325,3.682c-0.131,0.822-0.248,1.58-0.379,2.402c0,2.337,0.183,4.674,0.183,6.958
		c-0.052,2.858-0.117,5.757-0.117,8.682c0,7.897-0.196,15.939,0.065,23.851c0.117,3.094-0.379,7.01,0.822,9.621
		c0.625,1.266,1.893,1.958,2.911,2.963c2.52,2.677,5.626,5.078,7.846,8.042c1.069,1.579,1.906,3.237,2.715,4.804
		c0.379,0.627,0.823,1.215,1.267,1.906c0.457,0.875,0.51,1.645,1.267,2.35c0.248,0.053,0.116,1.201,0.116,1.515
		c0.393,1.201,0.705,2.467,1.15,3.668c0.509,2.337,0.822,5.183,0.888,7.768c0.183,4.621-0.313,9.635-1.202,13.812
		c-0.626,2.402-1.084,4.739-1.579,7.023c-0.705,2.337-1.449,4.739-2.155,7.088c-0.951,3.538-2.283,7.09-3.354,10.496
		c-0.562,1.828-0.81,3.982-1.579,5.704c-0.705,2.012-1.657,3.853-2.284,5.823c-1.318,3.668-2.52,7.336-3.852,11.006
		c-1.018,2.65-2.153,5.495-3.041,8.225c-0.562,2.218-1.267,4.424-1.841,6.644c-0.379,1.07-0.941,2.205-1.332,3.419
		c-1.266,4.179-2.532,8.29-3.785,12.532c-0.692,2.533-1.019,5.119-1.646,7.717c-0.208,0.953-0.509,1.893-0.822,2.846
		c-0.588,2.729-0.628,5.77-0.836,8.863c-0.247,2.09-0.378,4.112-0.691,6.137c0.196,2.976,0.261,5.938,0.313,8.862
		c0.066,1.763,0.626,3.786,0.834,5.433c0.628,4.125,1.633,8.223,2.899,12.166c0.249,1.135,0.458,2.336,0.836,3.459
		c2.09,5.758,4.739,11.148,7.455,16.463c1.266,2.271,2.153,4.672,3.616,6.775c1.07,1.449,2.336,2.975,3.354,4.308
		c1.906,2.401,3.538,4.868,5.756,6.958c4.492,4.111,9.244,7.088,14.296,10.299c1.332,0.771,2.598,1.724,3.93,2.678
		c2.584,1.696,6.005,3.342,8.93,4.608c6.384,2.584,13.159,4.059,20.312,5.312c2.023,0.445,3.994,0.836,5.939,1.267
		c5.261,0.887,11.267,1.892,16.397,2.779c4.372,0.523,8.668,1.02,13.027,1.594c2.912,0.248,5.823,0.496,8.734,0.757
		c5.574,0.888,11.083,1.775,16.449,2.978c3.302,0.743,6.592,2.009,9.62,3.354c1.527,0.692,2.925,1.448,4.373,2.14l2.219,1.201
		c3.604,2.468,7.338,4.805,10.628,7.598c3.237,2.6,6.018,5.627,8.537,8.917c0.457,0.64,1.724,1.971,1.515,2.103
		c0.705,0.051,4.308,7.022,4.946,7.976c-0.051,0.052-0.051,0.183-0.051,0.249c0.496,0.064,0.888-0.523,1.201-0.889
		c0.626-1.266,1.318-2.414,2.011-3.615c1.462-2.403,2.976-4.87,4.686-7.09c6.775-8.473,17.153-15.939,26.893-19.608
		c5.823-2.218,12.024-3.993,18.485-4.868c6.2-0.889,12.649-0.705,19.046-1.137c10.887-0.77,22.011-1.017,32.271-3.289
		c1.724-0.521,3.421-1.084,5.183-1.515c2.154-0.64,4.374-1.019,6.527-1.724c3.852-1.383,7.467-3.027,11.148-4.686
		c2.65-1.633,5.365-3.029,8.146-4.675c1.971-1.147,3.993-2.141,5.887-3.55c2.795-1.892,5.328-4.112,7.912-6.318
		c0.639-0.379,1.201-0.836,1.789-1.148c1.567-1.516,3.145-3.043,4.737-4.557c1.646-1.449,2.847-3.224,4.427-4.739
		c5.064-5.562,8.732-11.905,11.762-18.681c0.889-2.011,1.592-4.1,2.415-6.136c0.378-1.384,1.645-3.668,1.199-5.247
		c0-0.365,0.445-0.693,0.577-1.07c0.248-0.954,0.43-1.842,0.625-2.782c1.385-6.592,2.154-14.047,1.959-21.2
		c-0.053-1.135,0.262-2.337-0.496-3.172c0-0.639,0.183-1.136,0.183-1.879c-0.183-1.411-0.443-2.795-0.575-4.309
		c-0.56-3.8-1.199-7.403-2.272-11.07c-0.624-1.907-1.081-3.812-1.708-5.705c-4.491-17.154-11.463-33.158-16.828-49.92
		c-1.527-4.439-3.289-8.683-4.555-13.369c-1.841-6.449-2.402-13.407-2.089-20.809c0.248-5.326,1.069-10.639,2.649-15.691
		c0.887-2.858,1.906-5.888,3.42-8.537c2.533-4.439,5.443-8.355,9.491-12.037c1.383-0.939,2.648-1.827,3.917-2.78
		c0.574-0.378,1.461-0.822,1.775-1.515c0.834-1.448,0.376-6.279,0.376-8.041c-0.182-4.752,0-9.491,0.066-14.36
		c0.079-7.61-0.248-15.261-0.378-22.846c0.065-0.952,0.13-1.905,0.13-2.858c-0.194-0.81-0.247-1.58-0.378-2.402
		c0.064-0.888,0.064-1.893-0.184-2.65c-0.523-1.331-4.934-3.603-6.344-4.438c-1.893-1.266-3.917-2.467-5.679-3.851
		c-2.284-1.515-4.831-2.716-7.298-4.309c-6.449-4.047-12.91-8.354-19.412-12.467c-3.303-1.958-6.344-4.178-9.621-6.188
		C366.173,68.222,365.415,67.335,363.626,67.204z"/>
	<path class="st1" d="M275.978,0.078c-0.443,0.117-3.223,0.809-3.42,0.809c0,0.392-2.467,0.575-2.729,0.51l-14.216,2.78
		c-1.227,0-3.42-0.431-4.439,0.392l-3.602,0.692c-0.327,0-2.402,0.392-2.729,0.574c-5.065-0.143-10.117-2.663-14.999-1.841
		c0,0.065-0.888-0.248-1.527-0.195c-2.193,0-7.272-0.301-8.785,0.952c-1.398,0-5.066,0.627-5.758,1.515
		c-0.313,0-0.627-0.052-0.888,0c-0.692-0.052-2.024,0-2.468,0.313c-0.064,0-0.13,0.065-0.195,0.065
		c-0.066,0.326-1.763,0.326-2.154,0.392c0,0.065,0,0.13,0,0.183c-1.449-0.053-3.354-0.117-4.687,0.261c0,0.053,0,0.118,0,0.183
		c-0.365,0-0.808,0.065-1.254,0.065c-0.443,0.065-0.939,0.065-1.461,0.118c-3.043-0.118-6.189,0.392-9.178,0.522
		c-1.58,0-3.212,0-4.804,0c-1.645-0.066-3.604,0.183-5.066-0.13l-2.911,0.626l-0.509,1.593c0.065,0.379,0.196,1.058,0.196,1.058
		c-13.355,13.185-6.776,25.144-18.094,31.592c-0.888,0.496-0.195,1.566,0.496,1.88c0.821,0.392,5.509,0.836,6.332,0.588
		c0.312-0.131,0.378-0.314,0.509-0.627c0.64,0.039,0.953,0.809,2.089,0.809c3.237-0.065,6.383-0.131,9.556-0.183
		c1.58-0.131,3.172-0.314,4.739-0.444c1.854,0.131,4.373-0.248,6.147,0.313c2.206,0.771,4.113,2.65,6.071,3.733
		c2.219,1.201,4.622,2.154,6.958,2.977c0.953,0.444,1.906,0.692,2.858,1.123c2.847,0.771,5.823,1.593,8.982,2.036
		c5.822,0.64,12.075,0.51,17.219,2.65c1.88,0.705,3.473,2.402,5.183,3.603c2.466,1.724,7.206,4.766,10.248,5.144
		c1.958,0.118,4.177-0.521,5.64-1.396c0.757-0.509,1.449-1.267,2.284-1.644c0.875-0.066,1.763-0.066,2.65-0.131
		c1.331-0.313,2.585-0.691,3.798-1.136c0.94-0.627,2.022-1.136,3.042-1.645c0.679-0.51,1.385-1.019,2.075-1.632
		c0.576-0.144,1.136-0.274,1.711-0.457c1.332-0.496,2.599-0.953,3.982-1.397c0.77-0.431,1.578-0.94,2.35-1.384
		c0.756-0.574,1.697-1.384,2.52-1.775c0.836-0.195,1.971-0.064,2.778-0.064c1.229-0.313,2.365-0.562,3.565-0.771
		c1.201-0.431,2.219-1.24,3.421-1.515c1.448-0.314,3.213,0.274,4.478,0.522c1.45,0.183,3.422,0.065,4.752-0.209
		c5.054-0.627,9.754-3.094,15.065-2.899c1.906,0.183,3.784,0.392,5.627,0.574c6.084,0.444,12.023,0.444,17.792,0.379
		c3.225,0,7.077,0.562,10.131-0.065c0-0.183,0-0.457,0-0.64c0.04-1.058,0.497-2.337,0.104-4.438
		c-2.897-13.838-5-21.122-8.668-26.317c-0.247-0.313-1.449-2.533-1.513-3.095l-1.842-0.705c-1.763-0.117-3.537-0.495-5.299-0.613
		c-0.641,0-1.332-0.065-2.037-0.065c-1.829-0.248-4.229-0.769-6.004-0.456c0.065,0.248-0.066,0.13-0.249,0.064l-11.775-2.467
		c-2.401-0.627-4.804-1.332-7.22-2.285c-3.225-1.253-6.396-2.52-9.607-3.851c-1.018-0.379-2.037-1.084-3.173-1.201
		c-0.314-0.195-0.703-0.313-0.951-0.496C284.399,1.905,279.595,0.195,275.978,0.078z"/>
	<path d="M345.396,50.16v-1.023c0-0.277-1.572-2.632-2.482-2.632h-2.216c-14.855,0-23.854-0.243-26.989-0.73
		c-3.711-0.575-6.912-0.453-9.61,0.375c-5.38,1.652-10.343,2.076-14.876,1.281c-1.536-0.268-4.125-1.783-7.777-4.542
		c-4.193-3.168-8.713-7.301-13.559-12.398c-2.017-2.12-4.875-4.488-4.947-6.311l5.38,0.76l0.522-0.73
		c-0.969-0.521-1.66-0.965-2.075-1.33l-1.846-1.643c-1.004-0.893-1.694-1.341-2.07-1.341h-10.811
		c-0.254,0.21-0.866,0.308-0.809,0.487c-2.425-0.443-3.175-0.541-3.282-0.487l-2.333,1.165c-6.379,3.188-11.021,3.548-13.923,1.082
		c-0.954-0.809-1.378-1.56-1.276-2.247c0.104-0.663,1.199-1.579,3.292-2.744c2.44-1.359,4.808-3.085,7.102-5.171
		c3.988-3.631,4.976-3.703,9.915-3.957c5.419-0.277,10.533-1.033,15.341-2.262c5.375-1.374,8.248-2.071,8.619-2.096
		c3.195-0.204,8.83,1.638,16.904,5.532c9.324,4.498,21.659,7.233,37,8.197c4.404,0.277,6.649,0.38,6.726,0.307
		c0.252-0.233,0.301-0.721,0.147-1.462c-0.721-1.004-2.67-1.652-5.834-1.934c-2.367-0.215-3.828-0.351-4.38-0.419
		c-1.522-0.186-2.983-0.278-4.388-0.278c-4.152-0.005-19.795-3.285-34.502-10.536c-0.887-0.439-3.006-1.233-6.361-2.389
		l-1.953-0.673c-0.35-0.121-6.209,0.917-17.575,3.109c-2.888,0.556-5.1,0.863-6.633,0.912l-2.234,0.073l-2.139,0.603l-2.211,0.478
		l-1.934,0.672c-0.049,0.019-2.984-0.492-8.805-1.53C235.029,4.065,221.73,3.3,220.59,4.124l-0.984,0.711h-2.04
		c-0.459,0-1.13,0.107-2.017,0.322l-1.642,0.994h-2.215l-2.095,0.531c-3.224,0.818-11.316,1.306-24.281,1.462
		c-3.594,0.044-5.839,0.336-6.735,0.877c-0.497,1.116-0.555,1.964-0.175,2.539c4.1-0.458,9.336-0.595,15.704-0.409
		c6.678,0.195,11.411,0,14.212-0.58c1.3-0.273,2.809-0.668,4.529-1.194c5.663-1.729,11.856-2.466,18.588-2.202
		c3.062,0.121,5.108,0.755,6.136,1.9c0.059,1.486-1.699,3.124-5.283,4.913c-4.358,2.178-6.589,4.001-6.697,5.468
		c-0.142,1.905,2.82,6.043,4.529,6.726c1.555,0.619,10.447,0.068,10.958-0.073l2.508-0.687l2.571-0.424l2.571-0.435
		c3.312-0.56,5.728-0.482,7.252,0.229c1.201,0.561,4.007,3.149,8.411,7.759c4.285,4.483,8.084,8.29,11.404,11.414
		c2.553,2.402,3.979,4.123,4.291,5.171c-0.478,0.015-0.768,0.21-0.877,0.585c-3.072,0.132-5.416-0.429-14.674-6.102
		c-1.489-0.912-4.032-2.612-7.621-5.099c-2.318-1.603-4.393-2.573-6.225-2.899c-1.732-0.312-2.746-0.166-3.038,0.429l0.438,0.073
		c1.383,0.229,4.003,1.765,7.87,4.596c1.548,1.136,5.396,3.597,11.542,7.384c2.409,1.486,3.682,2.315,3.816,2.495
		c0.459,0.604,0.703,1.287,0.732,2.047c-3.854,2.271-9.059,1.062-15.613-3.636c-5.773-4.133-8.874-6.325-9.316-6.569
		c-2.201-1.224-3.58-1.428-4.145-0.614c0.608,0.761,1.12,1.263,1.538,1.501l1.938,1.116c0.059,0.034,3.02,2.271,8.878,6.711
		c1.451,1.097,2.659,1.955,3.629,2.573c2.404,1.53,3.555,2.632,3.446,3.305c-3.276,3.714-9.262,2.086-17.955-4.889
		c-3.974-3.188-6.607-4.873-7.903-5.054c-1.164-0.161-1.942-0.112-2.337,0.146v0.585c2.274,0.975,4.217,2.164,5.834,3.577
		c2.206,1.93,3.979,3.387,5.323,4.371c2.569,1.887,4.353,3.334,5.352,4.333c0.355,1.964-1.485,2.242-5.518,0.824
		c-0.984-0.347-3.688-1.745-8.109-4.206c-6.496-3.611-8.712-3.812-15.34-4.007c-4.675-0.136-10.466-1.72-17.361-4.752
		c-1.212-0.531-2.527-1.237-3.945-2.125c-4.348-2.714-7.703-4.195-10.065-4.449c-0.054-0.005-0.793,0.054-2.221,0.171
		c-2.913,0.243-11.074,0.424-24.48,0.541c-2.747,0.024-4.023,0.614-3.833,1.773c0.175,1.072,1.198,1.608,3.068,1.608h4.383
		c0.098-0.044,0.146-0.238,0.146-0.585c0.722,0.161,1.403,0.453,2.046,0.878c0.448,0.292,4.242,0.126,11.386-0.502
		c5.244-0.464,8.965-0.093,11.157,1.105c0.54,0.293,1.173,0.697,1.909,1.204c4.407,3.046,9.964,5.332,16.68,6.857
		c2.668,0.604,5.608,1.009,8.834,1.209c7.65,0.478,11.614,1.179,16.465,4.849c5.025,3.807,8.839,5.868,11.44,6.185
		c2.22,0.273,4.295-0.229,6.219-1.506l2.138-1.418l2.602-0.146c1.455-0.082,4.109-1.286,7.961-3.616
		c0.858-0.517,2.183-1.097,3.98-1.729c2.645-0.937,4.591-1.921,5.844-2.949l1.646-1.354h2.626c1.855,0,3.529-0.424,5.026-1.272
		l2.138-1.213l2.297,0.268c5.309,0.619,6.668,0.507,9.43-0.205c1.533-0.394,3.223-0.818,5.067-1.267l2.538-0.619l2.289-0.663
		c0.361-0.106,2.553,0.054,6.564,0.482c4.314,0.459,10.841,0.688,19.587,0.688H345.396z"/>
	<path class="st2" d="M131.634,72.909c1.958,0.183,3.094,1.318,4.688,2.402c1.827,1.331,3.668,2.78,5.678,3.668
		c3.355,1.449,6.711,2.846,10.131,4.295c2.715,0.822,5.64,1.384,8.537,2.023c2.925,0.705,5.888,1.515,9.19,1.658
		c5.183,0.313,10.312-0.078,15-1.201c1.515-0.509,2.964-0.888,4.412-1.345c1.332-0.431,2.741-1.201,4.126-1.449
		c0.77-0.064,1.645,0.248,2.153,0.823c0.444,0.509,0.81,1.148,0.875,1.762l-0.065,301.039l-0.314,3.028
		c-0.247,0.705-2.271-0.065-2.832,0.326c-4.307-0.142-8.42-0.888-12.48-1.267c-2.585-0.392-5.183-0.64-7.768-0.888
		c-1.267-0.247-2.546-0.509-3.812-0.704c-5.626-0.692-10.821-1.317-16.396-2.089c-3.342-0.444-7.01-1.449-10.3-1.957
		c-5.392-0.693-10.508-1.895-15.508-3.538c-0.575-0.249-1.202-0.575-1.776-0.888c-0.953-0.249-1.906-0.445-2.78-0.772
		c-0.51-0.248-1.018-0.562-1.516-0.875c-3.041-1.527-5.69-3.353-8.615-5.195c-2.533-1.645-4.805-3.732-7.336-5.312
		c-1.136-0.691-2.285-1.528-3.29-2.336c-6.449-6.527-11.958-13.799-15.757-21.645c-2.717-5.511-4.688-11.268-6.384-17.338
		c-0.457-1.515-1.477-3.485-1.477-5.312c-0.312-2.219-0.743-4.49-1.069-6.842c-0.497-5.377-0.497-11.122-0.313-16.827
		c0.184-5.013,1.697-9.751,2.859-14.438c1.317-6.318,3.146-12.4,4.986-18.471c0.51-1.516,1.084-2.978,1.71-4.374
		c1.07-3.85,2.402-7.767,3.734-11.501c0.953-2.402,1.905-4.766,2.728-7.232c2.847-9.033,5.888-18.094,8.604-27.454
		c0.496-1.396,1.019-2.845,1.58-4.294c1.449-6.018,3.225-12.35,3.354-19.047c0.392-11.148-4.113-23.041-9.739-31.396
		c-1.724-2.284-3.863-4.804-6.018-6.696c-1.069-1.084-3.106-1.841-3.485-3.551c-0.326-1.462-0.117-3.29-0.052-4.87
		c-0.065-1.462-0.197-2.911-0.313-4.425c0.116-1.084,0.183-2.22,0.183-3.368c-0.392-8.721,0-17.01-0.261-25.939
		c0-3.29,0.392-6.775-0.065-9.687c2.662,0.065,4.556-2.089,6.645-3.29c4.438-2.715,9.308-5.183,13.746-7.977
		c1.763-1.005,3.537-2.075,5.183-3.211c1.019-0.705,2.089-1.396,3.106-2.102c3.095-1.841,6.449-3.604,9.557-5.574
		c0.952-0.496,1.763-1.449,2.78-2.076C128.71,74.424,130.289,73.979,131.634,72.909z"/>
	<path class="st2" d="M364.579,75.18c2.519,0.248,6.449,2.964,8.473,4.295c0.822,0.64,2.598,1.958,3.604,2.089
		c0.441,0,1.71,1.201,2.1,1.449c2.272,1.396,4.49,2.78,6.75,4.242c6.527,4.243,12.976,8.551,19.568,12.794
		c1.449,1.019,4.622,2.585,4.935,4.412c0.64,2.533,0.392,6.462,0.392,9.243c0.183,8.041,0.248,16.526,0.312,24.686
		c0,2.402,0.118,4.805,0.118,7.402c0,1.07,0,2.468-0.392,3.485c-0.68,1.697-2.832,2.833-4.164,4.034
		c-2.715,2.35-5.511,5.261-7.271,8.106c-6.527,9.948-10.758,23.42-10.89,36.71c0,5.874,0.694,12.075,2.013,17.335
		c0.39,1.764,1.332,3.551,1.591,5.183c0.94,3.864,2.533,7.403,3.668,11.136c2.104,6.906,5.315,13.368,7.966,19.935
		c2.101,5.509,3.941,11.005,5.639,16.579c0.953,2.925,1.971,5.953,2.924,8.865c0.823,3.367,1.633,6.71,2.519,10.117
		c1.581,6.723,2.848,14.177,2.534,21.578c0,1.775-0.064,3.485-0.118,5.262c-1.722,11.135-4.882,21.71-10.077,30.94
		c-1.059,1.892-2.22,3.734-3.277,5.639c-1.201,1.449-2.545,2.912-3.484,4.543l-0.759,1.162c-0.836,0.432-1.513,1.516-2.154,2.076
		c-1.134,1.267-2.218,2.401-3.275,3.734c-0.834,0.691-1.593,1.526-2.429,2.272l-1.058,1.017c-3.042,2.154-6.07,4.244-9.177,6.384
		c-6.279,3.486-12.35,7.232-19.046,9.818c-2.795,1.084-5.771,1.826-8.616,2.845c-2.781,0.823-5.811,1.698-8.916,2.024
		c-3.553,0.379-7.023,1.461-10.641,1.709c-0.822,0.065-1.631,0.119-2.52,0.248c-0.638-0.065-1.591-0.129-2.102,0.08
		c-0.638,0.063-1.2,0.182-1.774,0.182c-2.325-0.065-5.744-0.262-7.781,0.443c-4.033-0.129-8.406,0.066-12.141,0.432
		c-1.019,0.209-2.662,0-3.485,0.456c-1.462-0.063-2.845-0.063-3.929-0.704c-0.496-0.432-1.059-1.201-1.059-1.892l-0.273-298.441
		c0-2.089-0.429-4.412,0-6.501c0.131-0.379,0.379-0.705,0.705-0.888c0.56-0.313,1.332-0.901,1.959-0.771
		c2.219,0.326,3.799,1.345,5.625,2.089c2.664,1.083,5.523,2.153,8.174,3.172c2.649,0.81,5.443,0.953,8.354,1.267
		c0.953,0.183,1.958,0.248,2.911,0.431c4.047,0.209,8.421-0.562,11.894-1.515c2.662-0.574,5.312-0.953,7.779-1.84
		c1.332-0.562,2.61-1.123,3.88-1.763c4.162-1.906,8.014-3.852,11.748-6.267C362.792,76.055,363.693,75.676,364.579,75.18z"/>
	<path d="M313.315,102.386c-0.379,0.443-0.757,0.822-0.94,1.462c-0.508,3.29,3.668,10.691,5.066,13.276
		c0.678,1.149,2.088,2.663,1.878,3.864c-0.037,1.005-2.962,1.906-3.705,2.52c-1.724,1.593-2.429,4.008-3.945,5.64
		c-1.2,1.083-3.288,1.449-4.096,2.78c-0.209,0.327-0.329,1.019-0.209,1.345c0.142,0.379,0.455,0.561,0.768,0.744
		c1.84,0.836,4.1,0.888,6.07,1.789c0.954,0.743,1.971,1.566,2.977,2.336c1.266,0.875,2.663,1.646,4.047,2.154
		c1.84,0.627,3.486,0.496,5.456,0.941c2.088,0.326,3.916,2.584,5.614,3.602c4.308,2.284,10.065,4.06,15.588,4.06
		c5.822-0.064,10.939-1.2,15.99-2.976c1.084-0.313,2.102-0.692,3.239-1.201c0.886-0.313,1.696-1.084,2.78-1.084
		c1.135-0.065,2.271,0.771,3.172,1.084c3.668,1.462,7.204,2.977,11.07,4.242c1.396,0.314,3.29,1.006,5,0.744
		c1.775-0.183,2.531-1.579,3.93-2.585c0.821-0.691,1.841-1.148,2.65-1.893c2.399-2.036,8.536-9.178,8.353-12.284
		c-0.13-0.94-0.835-1.893-1.708-2.35c-0.575-0.313-1.385-0.496-2.154-0.627c-1.449-0.117-9.178-0.365-10.131,0.131
		c-3.277-0.065-6.449-0.183-9.674-0.496c-1.202-0.261-2.402-0.457-3.552-0.705c0-0.248,0.066-0.183-0.182-0.183
		c0-0.065,0-0.131,0-0.196c0.182,0,0.117-0.117,0-0.261c0-0.313,7.337-6.632,8.095-7.402c2.531-2.715,5.52-6.253,6.082-9.986
		c0.249-2.102-0.834-6.201-3.551-5.326c-1.631,1.017-3.289,1.906-4.868,2.794c-1.515,0.495-3.174,1.018-4.686,1.645
		c-0.691-0.065-1.566,0.248-2.09,0.431c-0.627,0.065-1.45,0.209-1.946,0.457c-0.585,0-1.474,0-1.903,0.117
		c-0.523,0.131-1.018,0.248-1.517,0.248c-1.591,0-3.483,0-4.83,0.522c-1.122,0-3.785-0.261-4.606,0
		c-1.28,0.065-3.355-0.392-4.427,0.183c-1.579-0.065-6.71,0.444-7.858,1.019c-2.65-0.078-7.898,1.893-9.608,3.733
		c-3.734-0.065-6.905-2.532-9.869-4.06c-3.173-1.646-6.345-3.8-9.242-5.953C318,105.232,315.717,102.764,313.315,102.386z"/>
	<path d="M135.094,282.409c-1.201,0.064-2.403,0.248-3.733,0.508c-0.314,0-0.68,0.367-0.823,0.627
		c-2.141-0.117-3.734,1.215-5.431,1.893c-0.457,0.209-1.018,0.457-1.514,0.641c-1.593-0.066-2.859-0.823-4.126-1.318
		c-0.888-0.38-2.285-0.588-3.354-0.588l-4.869,0.13c-1.332-0.13-2.781,0-4.19-0.065c-1.881-0.248-4.348-0.561-6.319-0.312
		c-0.495,0.064-1.018,0.378-1.083,0.889c-0.888,3.158,5.574,5.951,7.402,7.467c0.888,1.201,1.788,2.401,2.675,3.551
		c1.137,1.252,3.603,3.29,4.1,4.738c0.274,0-0.679,1.083-0.952,1.396c-0.562,0.3-1.058,0.627-1.515,0.889
		c-1.516,0.678-4.308,1.879-6.07,2.154c0,0.312-0.248,0.364-0.562,0.496c-2.794,1.07-5.691,2.152-8.551,3.172
		c-4.503,2.205-7.597,7.453-7.021,12.714c0.325,3.616,1.958,6.698,4.803,8.669c0.575,0.248,1.136,0.562,1.657,0.809
		c1.385,0.837,2.65,1.842,4.035,2.546c1.266,0.81,2.531,1.646,3.876,2.403c1.124,0.691,2.325,1.514,3.526,2.219
		c0.64,0.378,1.345,0.627,2.036,1.018c2.023,1.515,3.995,2.965,6.149,4.295c5.495,3.539,11.135,6.893,16.762,10.378
		c2.022,1.138,3.864,2.468,5.809,3.552c1.279,0.822,2.677,2.09,4.243,2.402c3.106,0.496,7.036-2.22,9.438-3.355
		c0.64-0.195,1.266-0.444,1.958-0.704l8.29-4.048c5.312-2.584,10.821-4.804,16.069-7.402c2.089-1.135,4.06-2.401,6.07-3.537
		c0.64-0.379,1.41-0.639,1.593-1.332c0.627-2.65-4.243-3.225-5.692-4.242c-0.509-0.444-0.626-1.018-0.77-1.515
		c-1.201-3.237,1.593-5.888,3.812-7.546c0.065-0.939-0.64-1.826-1.202-2.467c-0.573-0.248-1.084-0.56-1.593-0.875
		c-2.467-1.709-5.116-2.977-7.65-4.426c-1.082-0.625-2.218-1.33-3.236-2.035c-2.649-1.385-5.184-2.782-7.768-4.23
		c-1.162-0.822-2.22-1.449-3.421-2.219c0-0.066,0-0.117,0-0.184c1.201,0.066,3.343,0,3.852-1.527
		c0.196-0.691,0.692-1.763,1.396-2.205c1.006-0.575,2.154-0.822,3.226-1.279c4.23-1.829,8.733-4.296,10.052-9.164
		c0.195-0.824,0.587-2.469,0.391-3.357c-0.195-0.77-0.821-2.089-0.443-2.923c-0.13,0-2.219-2.012-2.532-2.338
		c0-0.131,0-0.248,0-0.443c-2.781-0.117-5.888-0.889-8.852-0.641c0,0.078,0,0.145,0,0.209c-3.237-0.131-6.709,0.248-9.947,0.432
		c-0.953,0.13-1.894,0.195-2.846,0.312c-0.953-0.051-1.958,0.131-2.911-0.117c-1.828-0.875-3.551-1.709-5.313-2.598
		c-1.905-0.561-3.812-1.07-5.757-1.318C137.182,282.474,136.047,282.54,135.094,282.409z"/>
	<path d="M311.8,456.361l-25.455,4.582v0.039c-0.562-0.248-1.137-0.314-1.764-0.314h-0.509c-1.709,0.132-3.237,1.332-4.504,3.239
		c-0.941,1.447-1.88,3.668-2.834,6.383c-1.266-2.258-2.715-4.165-4.503-5.639c-1.893-1.516-3.98-2.324-6.2-2.324
		c-0.249,0-0.575,0.064-0.823,0.064c-0.744,0.066-1.514,0.314-1.945,0.691c-0.456,0.328-0.77,0.759-0.77,1.463v0.379
		c0.248,1.135,1.643,1.254,2.402,1.318c0.887,0.065,1.645,0.248,2.35,0.562c1.069,0.522,2.153,1.409,3.405,2.794
		c1.151,1.331,2.104,2.91,2.849,4.686l0.77,5.705v0.314c0,0.43-0.132,0.678-0.249,0.887c-0.13,0.118-0.587,0.365-1.656,0.365h-1.202
		l0.327,2.599l12.022-1.071l-0.131-1.58l-0.142-0.951l-0.875,0.064c-0.366,0.053-0.693,0.053-1.007,0.053
		c-0.706,0-1.084-0.117-1.148-0.117c-0.182-0.131-0.365-0.248-0.432-1.019l-0.834-6.202c0.953-2.977,1.893-5.299,2.846-7.088
		c0.888-1.592,1.659-2.219,2.035-2.336v0.117v0.313v0.208c0.119,0.379,0.313,1.006,0.889,1.332c0.496,0.301,1.07,0.365,1.449,0.365
		c0.821,0,1.383-0.574,1.58-0.822c0.443-0.443,0.573-0.954,0.573-1.514v-0.457c0-0.105,0-0.184-0.066-0.248
		c0.38-0.066,0.628-0.119,0.876-0.119c0.457,0,0.705,0.053,0.889,0.184c0.064,0,0.312,0.262,0.521,1.2l3.029,13.056
		c0.117,0.431,0.117,0.68,0.117,0.94c0,0.325,0,0.365-0.053,0.442c-0.131,0.132-0.692,0.444-1.958,0.693l-0.888,0.247l0.184,0.888
		l0.312,1.449l11.919-2.153l-0.328-1.515l-0.259-0.889l-0.889,0.145c-0.496,0.117-0.953,0.183-1.317,0.183
		c-0.38,0-0.628-0.066-0.77-0.118c-0.184-0.209-0.432-0.586-0.627-1.332l-2.898-12.532c-0.143-0.378-0.143-0.626-0.143-0.835
		c0-0.248,0.065-0.43,0.143-0.561c0.248-0.184,0.94-0.51,2.324-0.759l3.171-0.56c0.823-0.197,1.449-0.275,1.907-0.275
		c0.365,0,0.496,0.078,0.562,0.078c0.116,0.065,0.43,0.379,0.64,1.398l2.898,12.584c0.195,0.443,0.195,0.692,0.195,0.888
		c0,0.247-0.066,0.392-0.066,0.392c-0.129,0.104-0.624,0.432-1.957,0.679l-0.889,0.196l0.131,0.953l0.314,1.631l12.074-2.402
		l-0.561-1.578l-0.249-0.758l-0.821,0.117c-0.588,0.145-1.02,0.209-1.396,0.209c-0.393,0-0.574-0.064-0.705-0.143
		c-0.053-0.065-0.366-0.312-0.562-1.331l-3.041-12.951c-0.117-0.457-0.117-0.771-0.117-0.953c0-0.326,0.053-0.391,0.053-0.457
		c0.129-0.117,0.638-0.378,2.035-0.691l0.888-0.262l0,0l0.431-0.117c0.706-0.195,1.268-0.26,1.645-0.26
		c0.393,0,0.573,0.064,0.64,0.064c0.132,0.066,0.444,0.248,0.64,1.2l4.542,12.794c0.21,0.496,0.249,0.889,0.249,1.07l-0.039,0.197
		c-0.144,0.182-0.586,0.43-1.905,0.951l-0.952,0.301l0.391,0.953l0.613,1.332l11.462-3.225l-0.509-1.514l-0.248-0.836l-0.836,0.209
		c-0.744,0.182-1.318,0.248-1.697,0.248c-0.312,0-0.454,0-0.495-0.066c-0.208-0.065-0.522-0.326-0.706-1.199l-1.841-5.131
		l9.112-2.469l1.905,5.196c0.132,0.431,0.184,0.745,0.184,0.993v0.209c-0.184,0.248-0.64,0.56-1.958,0.992l-0.887,0.326l0.325,0.9
		l0.431,1.383l11.895-3.289l-0.825-1.58l-0.311-0.639l-0.744,0.131c-0.705,0.182-1.201,0.247-1.592,0.247
		c-0.249,0-0.445,0-0.51-0.066c-0.117-0.064-0.444-0.312-0.759-1.2l-4.489-12.795c-0.196-0.56-0.263-0.927-0.263-1.122v-0.195
		c0.066-0.131,0.564-0.51,1.843-0.875l0.94-0.274l-0.065-0.117l0.455-0.064c0.131-0.065,0.247-0.065,0.314-0.065
		c0.888-0.183,1.384-0.314,1.698-0.314l0.143,0.065c0.066,0,0.444,0.13,0.81,1.083l5.509,11.895
		c0.511,1.018,0.626,1.578,0.626,1.839c-0.052,0.132-0.429,0.497-1.565,0.941l-0.954,0.325l0.38,0.941l0.574,1.462l11.382-4.125
		l-0.886-1.514l-0.366-0.693l-0.77,0.262c-0.887,0.314-1.514,0.379-1.904,0.379h-0.184c-0.248-0.064-0.691-0.457-1.201-1.658
		l-1.762-3.982c1.318-0.521,2.335-0.951,3.147-1.33c0.77-0.393,1.526-0.823,2.088-1.202c1.332-0.888,2.101-2.154,2.467-3.354
		c0.197-0.496,0.275-1.018,0.275-1.449c0-0.888-0.275-1.763-0.642-2.663c-0.835-1.84-2.218-3.042-4.124-3.407
		c-0.496-0.064-1.058-0.131-1.697-0.131c-1.462,0-3.172,0.313-5,1.019l-9.491,3.459l0,0l-11.71,3.303l0.562,1.448l0.261,0.705
		l0.757-0.065c0.822-0.129,1.449-0.195,1.842-0.195c0.312,0,0.43,0,0.496,0.066c0.131,0,0.312,0.194,0.705,1.199l1.631,4.686
		l-9.033,2.534h-0.146l-1.631-4.752c-0.13-0.432-0.194-0.822-0.194-1.007c0-0.194,0-0.261,0.064-0.312
		c0.065-0.131,0.495-0.522,1.761-0.901l0.954-0.248l-0.312-0.887l-0.432-1.516l-11.645,3.238V456.361z"/>
	<path class="st3" d="M247.624,82.257c1.658,0.248,2.532,1.018,3.799,1.71c2.088,1.2,4.125,2.35,6.279,3.159
		c3.916,1.527,8.604,2.61,13.158,2.793c2.717-0.143,5.365-0.248,8.044-0.248c2.584-0.144,5.232-0.822,7.584-1.592
		c1.578-0.444,2.976-1.267,4.556-1.646c0.56-0.052,1.383-0.052,1.825,0.313l0.197,304.003c-0.757,1.762-10.494,3.732-12.65,4.307
		c-2.036,0.744-4.124,1.385-6.2,2.076c-1.201,0.457-4.125,1.973-3.994,1.842c-0.131,0-0.248,0-0.443,0
		c-0.066,0.314-2.338,1.265-2.781,1.514c-5.444,3.107-10.771,7.154-15.64,11.396c-2.402,2.219-4.413,5.064-6.384,7.584
		c-0.457-0.051-0.888-0.314-1.201-0.613c-1.018-1.267-2.036-2.414-3.041-3.693c-1.515-1.881-3.408-3.525-5.313-5.053
		c-7.337-6.201-14.569-10.758-23.42-14.426c-2.467-1.018-5-1.828-7.52-2.65c-0.704-0.312-1.526-0.378-2.218-0.704l-0.575-304.433
		c0.118-0.587,0.391-1.396,0.822-1.723c1.201-0.627,4.308,1.136,5.392,1.345c2.193,0.562,4.478,1.331,6.88,1.449
		c2.611,0.183,5.509,0.183,7.977,0.13c1.331,0,2.676-0.064,3.981-0.064c5.888-0.641,11.279-2.22,16.515-4.243
		C244.595,84.28,246.489,83.391,247.624,82.257z"/>
	<path class="st0" d="M384.058,111.616c0.064,0.065,0.131,0.131,0.182,0.183c1.267,0.065-0.809,2.78-0.873,2.989
		c-0.378,0.627-0.693,1.384-1.32,1.945c-0.457,0.261-0.834,0.561-1.344,0.836c-0.496,0.679-1.005,1.384-1.514,2.089
		c-0.627,0.312-1.2,0.743-1.828,1.136c-0.642,0.561-1.266,1.188-1.841,1.762c-1.972,1.515-3.981,3.055-6.02,4.373
		c-0.952,0.444-1.892,0.758-2.832,1.267c-0.952,1.136-1.905,2.337-2.923,3.485c-0.314,0.432-0.563,0.953-0.825,1.318
		c-0.063,0-0.245,0.313-0.312,0.444c2.533,0,3.289-2.076,5.194-2.964c0-0.392,0.445,0.053,0.628,0.118
		c2.586,1.083,4.426,2.977,7.467,3.303c3.408,0,6.893,0,10.314,0.117c0.638-0.117,1.201-0.261,1.697-0.326
		c2.467-0.183,8.498-0.744,10.443,0.457c0.521,0.313,0.586,0.81,0.77,1.318c-0.248,0-0.184-0.052-0.312,0.131
		c-0.575,0.822-1.594,1.2-2.153,1.905c-0.458,0.692-0.824,1.449-1.333,2.22c-0.823,1.058-2.155,2.402-3.289,3.211
		c-0.641,0.313-1.269,0.575-1.842,0.888c-0.561,0.379-1.124,0.705-1.697,1.136c-1.827,0.836-3.93-0.3-5.507-0.757
		c-0.759-0.248-1.528-0.496-2.286-0.562c-2.402-0.952-4.805-1.775-7.271-2.676c-1.201-0.679-2.467-1.318-3.799-1.828
		c0,0.262-4.934,2.285-5.574,2.599c-1.058,0.392-2.467,0.457-3.421,1.083c-0.184,0-1.579,0.248-1.892,0.431
		c-0.367,0-0.825,0.078-1.254,0.144c-2.416,0.313-4.752,0.94-7.155,0.875c-5.703-0.131-11.396-0.248-15.951-2.846
		c-1.019-0.496-1.958-1.201-2.911-1.841c-0.823-0.627-1.201-1.828-2.089-2.141c-0.823-0.262-1.841-0.079-2.717,0
		c-1.449-0.079-3.106-0.327-4.436-0.705c-1.697-0.574-3.043-2.023-4.426-3.107c-0.953-0.809-2.781-0.875-3.355-2.075
		c0-0.079-0.064-0.184-0.064-0.327c0.181-1.2,1.383-1.762,2.218-2.649c0.94-0.953,1.958-1.828,3.159-2.35
		c1.972-0.823,5.248-0.366,7.153,0.261c1.386,0.379,2.782,1.07,4.374,1.07c1.137,0,2.26-0.117,3.343-0.313
		c1.018-0.117,3.929-1.331,4.882-0.64c2.076,1.267,2.533,3.93,3.604,5.822c0,0.065,0,0.209,0,0.248c0.063,0,0.13,0,0.195,0
		c0-0.039,0-0.183,0-0.248c0.365,0,0.314-0.312,0.432-0.561c0.77-1.906-0.066-3.8-0.563-5.51c-1.266-4.373-0.142-7.401,3.734-9.425
		c2.402-1.332,5.692-1.084,8.603-1.332c5.196-0.443,10.626-0.379,15.626-0.888c2.022-0.248,4.178-0.313,6.071-0.691
		c1.345-0.432,2.677-0.888,3.942-1.318C382.086,112.307,383.182,111.995,384.058,111.616z"/>
	<path d="M353.575,237.566c-1.137,0.301-2.729,0.118-3.852,0.562c-1.017,0-1.906,0.312-2.793,0.43
		c-4.504,1.15-8.799,2.989-12.402,5.822c-3.473,2.678-6.96,5.823-9.112,9.621c-0.314,0.328-0.562,0.576-0.822,0.953
		c-0.901,2.154-2.143,4.308-2.847,6.58c-1.201,3.929-2.466,10.131-1.775,14.687c0.262,1.775,0.574,3.603,0.889,5.3
		c0.312,1.201,0.573,2.467,0.821,3.668c0.562,1.02,1.136,2.154,1.646,3.303c0.117,0.38,0.327,0.758,0.432,1.137
		c0.325,0.574,0.705,1.135,1.135,1.658c0.131,0.169,0.379,0.26,0.392,0.496c0.064,1.266,1.017,1.84,1.71,2.65
		c0.327,0.521,0.573,1.017,0.889,1.526c0.496,0.378,1.069,0.757,1.58,1.15c-0.066,0.43,0.574,0.679,0.821,0.953
		c0.561,0.626,1.017,1.267,1.515,1.827c2.336,1.762,5.705,3.107,6.84,5.874c0.433,0-0.377,1.332-0.625,1.527
		c-1.658,1.71-3.043,3.16-3.564,5.562c-0.105,0.952-0.248,1.826-0.314,2.728c-0.744,2.153-1.567,4.111-2.647,6.07
		c-0.132,0-0.564,1.137-0.706,1.384c-1.829,3.107-2.469,7.297-1.137,10.836c0.326,0.938,1.463,2.283,1.463,3.342
		c0,0.822,0.691,1.592,0.131,2.284c0.063,0.691,0.495,0.888-0.066,1.905c0,0.248,0.066,0.183-0.182,0.248
		c0,0.313,0.429,0.575,0.624,0.824c0.25,0.064,0.185,0,0.119,0.247c-0.495-0.065-0.495,0.704-0.378,1.018
		c-0.184,0-0.054,0.132,0,0.183c0,0.248,0.063,0.197-0.184,0.197c0,0.182-0.065,0.326-0.065,0.43c-1.201,0.078-3.16-0.627-4.427,0
		c-1.147-0.064-2.218,0.457-3.419,0.261c-2.154-0.325-4.113-2.728-6.516-1.958c-2.023,0.888-3.811,4.374-5.195,6.137
		c-1.709,2.271-4.229,4.425-4.555,7.479c-0.196,0.81,0.508,1.698,1.069,2.154c3.733,2.39,9.491-3.563,12.976-3.812
		c2.859-0.312,5.446,1.71,7.664,2.65c2.782,1.202,7.846,1.724,10.639,0.575c2.769-1.201,3.982-4.936,4.921-7.402
		c0.511-1.136,0.692-2.402,1.266-3.473c0.315-0.575,0.954-0.771,1.334-0.209c0.378,0,0.183,0.392,0.13,0.641
		c-0.195,1.018,0.248,2.218,0.327,3.172c0.038,0.496,0.104,1.018,0.038,1.449c0.208,0.77,0.523,1.787,0.392,2.597
		c0,0.249,0.496,0.888,0.561,1.07c0,0.065,0,0.132,0,0.196c-0.314,0-0.248,0.184-0.248,0.443c-0.248,0-0.182,0-0.182,0.197
		c0.116,1.201-0.523,2.78-0.889,3.732c0,0.248,0.053,0.314,0.184,0.431c-0.131,0-0.248,0-0.445,0c0,0.132,0,0.249-0.052,0.458
		c0.313,0-0.196,0.117-0.196,0.117c0,0.312,0.51,0.758,0.693,1.018c0.507,1.201,0.821,2.781,2.219,3.342
		c1.709,0.705,3.994,0.145,5.821,0.326c1.267,0.065,2.467,0.758,3.604,1.084c2.977,0.68,7.152,0.496,9.06-1.787
		c0.887-0.889,0.365-2.469-0.457-3.291c-0.497-0.443-1.2-0.496-1.763-0.875c-1.201-0.639-4.869-3.236-5.574-4.49
		c-0.443-0.639-0.77-2.036-0.627-2.988c0.066-0.498,0.314-1.385,0.131-1.895c0.053,0.262-0.064,0.131-0.195,0
		c0.312,0,0.248-0.182,0.312-0.443c0.131-0.822,0.379-1.58,0.509-2.35c0.823-3.355,1.776-7.024,1.646-10.808
		c-0.065-1.516,0.378-2.912-0.184-4.244c0-1.645-2.22-2.729-3.106-3.721c0-0.064,0-0.144-0.065-0.207
		c-0.497,0-1.019,0.143-1.515-0.119c-1.345-0.443-2.48-1.645-3.813-2.35c-0.496-0.248-1.056-0.431-1.566-0.743
		c-0.13-0.132-0.262-0.575-0.262-0.888c0.446-1.789,4.819-2.037,6.085-2.925c1.201-0.743,1.843-1.958,2.586-3.028
		c-0.379,0-0.066-1.396,0-1.697l0,0c0.311-2.103,3.668-2.545,5.143-3.551c1.448-0.889,2.898-2.09,3.784-3.42
		c0.628-0.889,1.138-1.907,1.268-2.912c0.064-0.953,0.249-2.283,0.771-2.911c0.43-0.326,0.81-0.64,1.2-0.952
		c1.696-1.202,3.407-2.338,5.053-3.42c6.449-5.941,11.201-12.076,13.04-20.68c3.03-15.065-4.372-31.004-17.036-38.054
		c-1.018-0.679-4.478-2.767-5.887-2.192c0-0.066,0.065-0.197,0.065-0.275c-0.378,0-0.745-0.561-1.123-0.613
		c-1.278-0.443-2.479-0.77-3.681-1.148C359.777,237.605,356.602,237.749,353.575,237.566z"/>
	<path d="M143.71,102.491c-0.823,0.457-1.776,0.835-2.586,1.201c-1.096,0.952-2.297,1.905-3.421,2.846
		c-0.703,0.326-1.382,0.64-2.022,1.018c-0.953,0.758-2.467,2.22-3.981,2.285c0,0.378-3.237,1.384-3.813,1.579
		c0,0.065,0,0.131,0,0.196c-0.247-0.131-0.561-0.196-0.81-0.248c0,0.431-1.344,0.365-1.787,0.627c-0.641,0-1.384,0.052-1.881,0.365
		c-1.905-0.065-3.564-0.065-5.144-0.81c-2.022-0.771-2.898-3.107-5.575-2.284c-0.625,0.195-1.265,0.691-1.514,1.331
		c-0.626,2.22,2.104,3.421,2.925,4.869c0.065,0,0.117,0,0.182,0c0,0.313-0.182,0.196-0.442,0.196
		c-0.066,2.911-0.94,5.822-1.893,8.407c0.248,0,0.183-0.066,0.117,0.209c-0.248,0-0.117-0.079-0.183,0.183
		c-0.326,0-0.248,0.183-0.248,0.431c0,2.102-0.771,4.191-1.345,6.083c-0.744,3.421-1.516,6.775-2.467,9.922
		c-0.249,0.836-0.381,1.658-0.692,2.363c-0.574,0.809-2.089,1.122-2.977,1.696c-0.065,1.449,1.775,1.972,2.402,2.847
		c0.392,0.757,0.704,1.449,1.018,2.284c0.497,0.822,1.2,1.566,1.448,2.468c0,0,5.013,3.472,5.641,2.78
		c1.201,0.131,2.715,0.443,3.98,0.313c3.5-0.313,6.528-2.402,8.748-5.053c0.64-0.953,1.135-1.84,1.761-2.61
		c0.575-0.679,2.272-0.992,2.403-2.142c0.144-1.462-2.533-1.592-3.42-2.336c-0.379-0.248-0.562-0.953-0.693-1.527
		c-0.116-0.444-0.64-2.468-0.757-2.781c0-0.065,0.066-0.13,0.066-0.183c-0.262,0-0.941-2.35-0.758-2.35
		c0.562,0-0.326-1.632-0.393-1.906c-0.051,0-0.625-0.496-0.625-0.888c0.064-0.314,0.13-0.248-0.185-0.248
		c0-0.313,0-1.645-0.064-1.645c0.064-0.366,0.131-1.841,0.131-1.893c-0.327,0.053-0.327-0.261-0.575-0.378
		c-0.064-0.77-0.377-2.598-1.018-3.029c-0.248,0-0.13-0.078,0-0.209c0.065-0.117,0.065-0.247,0.065-0.431
		c-0.065-0.521-0.248-1.018-0.509-1.448c0.313,0-0.496-2.103-0.641-2.599c-0.038-0.704-1.631-4.177-1.2-4.882
		c0-0.313,0.392-0.51,0.64-0.692c1.462-0.705,4.621-0.496,6.33-0.705c1.28-0.312,2.481-0.431,3.683-0.626
		c2.585-0.94,5.248-1.841,7.833-2.794c1.579-0.248,2.923,0.9,4.439,0.9c2.218,0.248,3.667-1.083,5.938-0.691
		c0.901,0.065,1.711,0.627,2.533,0.939c1.905,0.64,3.732,1.136,5.64,1.711c2.532,0.874,5.182,0.835,7.977,1.266
		c-0.079,0.248,0.13,0.496,0.183,0.692c0.13,0.574,0.064,1.645,0,2.271c-1.137,4.125-2.402,8.42-3.604,12.598
		c-0.443,2.467-1.346,4.882-1.972,7.35c-0.365,1.449-0.613,3.042-1.253,4.242c-0.588,1.071-2.037,0.889-2.847,1.945
		c-0.325,0,0.104,1.41,0.104,1.658c2.037,0.066,2.677,2.78,3.5,4.047c0.874,1.332,2.023,2.794,3.342,3.604
		c4.556,2.598,11.462,1.331,15.064-2.011c1.449-1.279,2.22-2.989,3.355-4.439c0.562-0.822,1.907-0.758,2.219-1.658
		c0.132-0.431,0.184-0.875,0.249-1.384c-0.379-0.13-0.822-0.314-1.267-0.496c-0.573-0.131-1.266-0.065-1.774-0.378
		c-1.516-1.201-1.268-3.604-2.898-4.7c0.053-0.562,0.117-1.122,0.053-1.645c-0.053-0.496-0.941-2.964-0.68-3.538
		c-0.393-0.888-0.705-1.828-1.083-2.78c-0.444-1.658-0.822-3.421-1.318-5c-0.327,0-0.274-0.262-0.327-0.574
		c-0.26-1.945-2.78-7.023-2.219-9.034c0.326-0.953,2.154-1.527,2.911-2.428c0.248-0.313,0.443-0.744,0.691-1.137
		c0.183-0.495,0.262-1.2,0.066-1.827c-0.196-0.313-0.249-0.64-0.444-0.822c-1.07-1.019-2.964-1.201-4.165-0.379
		c-0.391,0.379-0.77,0.627-1.279,0.953c-1.084,0.444-2.075,0.81-3.094,1.136c-1.593,0.248-3.916,0-5.509-0.392
		c-1.893-0.431-5.431-1.827-7.023-2.833C151.372,106.864,148.527,102.948,143.71,102.491z"/>
	<path class="st0" d="M118.149,304.628c1.254,0.456,4.033,1.722,4.033,3.172c0.132,1.135-2.337,2.467-2.898,3.537
		c-3.04,5.822,2.272,11.45,7.272,13.291c7.859,2.963,20,2.963,26.448-1.841c1.463-1.124,2.154-3.03,2.794-4.688
		c0.444-1.2-0.392-3.851,1.201-4.229c0.066,0,0.131,0,0.248,0c1.084-0.065,3.799,1.971,4.752,2.533
		c0.952,0.574,1.841,1.07,2.781,1.449c1.905,1.082,3.68,2.088,5.509,3.289c1.33,0.771,2.715,1.541,4.06,2.219
		c0.312,0.314,0.744,0.771,0.81,1.201c0.248,1.905-10.118,6.137-11.893,7.154c-3.485,1.58-6.972,3.238-10.443,4.805
		c-1.958,0.953-5.953,3.484-8.355,3.055c-0.627-0.066-1.201-0.523-1.71-0.837c-1.959-1.07-3.786-2.218-5.692-3.288
		c-1.514-0.889-3.172-1.764-4.753-2.912c-0.509-0.326-1.201-0.575-1.513-1.135c-0.326-0.066-0.575,0.182-0.692,0.377
		c-0.066,0-0.13,0-0.195,0c0.065-0.496-0.392-0.888-0.823-1.082c-2.964-1.698-5.639-3.918-8.602-5.511
		c-2.023-1.122-4.125-2.206-6.07-3.524c-0.705-0.457-1.331-0.953-2.037-1.527c-1.696-1.082-10.692-5.77-11.004-7.336
		c-0.118-0.691,0.443-1.266,0.952-1.58c1.332-0.836,3.029-1.397,4.477-1.841c1.659-0.691,3.174-1.332,4.754-1.958
		C113.775,306.534,116.113,305.829,118.149,304.628z"/>
	<path class="st4" d="M253.199,348.988l3.616,7.91c1.004,2.012,1.579,3.16,1.632,3.486c0.129,0.561,0.274,1.135,0.274,1.696
		c0,0.954-0.327,1.645-1.163,2.154c-1.058,0.691-2.898,1.019-5.613,1.019h-1.396v1.762h33.405v-1.762
		c-2.087-0.144-3.668-0.705-4.869-1.658c-1.526-1.266-3.419-4.412-5.886-9.308l-24.869-51.814h-0.888l-24.738,50.43
		c-2.35,4.805-4.309,7.976-5.889,9.49c-1.58,1.594-3.668,2.532-6.135,2.859v1.762h23.028v-1.762
		c-3.669-0.21-5.888-0.574-6.828-1.084c-1.593-0.887-2.336-2.154-2.336-3.93c0-1.384,0.43-3.027,1.383-5.117l2.911-6.135H253.199z"
		/>
	<path class="st4" d="M253.199,151.106l3.616,7.924c1.004,2.011,1.579,3.146,1.632,3.459c0.129,0.588,0.274,1.149,0.274,1.724
		c0,0.953-0.327,1.645-1.163,2.154c-1.058,0.691-2.898,1.018-5.613,1.018h-1.396v1.696h33.405v-1.696
		c-2.087-0.145-3.668-0.705-4.869-1.658c-1.526-1.267-3.419-4.439-5.886-9.309l-24.869-51.813h-0.888l-24.738,50.43
		c-2.35,4.805-4.309,7.977-5.889,9.491c-1.58,1.593-3.668,2.532-6.135,2.859v1.696h23.028v-1.696
		c-3.669-0.209-5.888-0.588-6.828-1.084c-1.593-0.888-2.336-2.154-2.336-3.93c0-1.396,0.43-3.028,1.383-5.117l2.911-6.148H253.199z"
		/>
	<path class="st4" d="M248.381,228.363l18.538-14.868c4.504-3.682,7.467-5.823,8.667-6.462c1.267-0.614,3.042-1.006,5.196-1.136
		v-1.763h-24.686v1.763c2.727,0.065,4.425,0.326,5.129,0.64c1.318,0.691,1.959,1.645,1.959,2.78c0,1.593-1.566,3.668-4.87,6.318
		l-23.419,19.008v-19.687c0-3.237,0.196-5.182,0.573-5.953c0.511-1.018,1.137-1.775,1.895-2.219c1.148-0.562,2.78-0.888,4.935-0.888
		v-1.763h-31.515v1.763h2.154c1.775,0,3.173,0.248,4.243,0.888c1.019,0.561,1.709,1.331,2.01,2.102
		c0.327,0.822,0.522,2.833,0.522,6.07v41.632c0,3.172-0.195,5.13-0.522,5.822c-0.431,1.084-1.057,1.828-1.826,2.285
		c-1.137,0.625-2.651,0.952-4.427,0.952h-2.154v1.763h31.893v-1.763c-2.258,0-3.982-0.261-5.052-0.888
		c-1.084-0.575-1.775-1.266-2.155-2.037c-0.377-0.822-0.573-2.833-0.573-6.135v-17.285l2.35-1.945l14.425,18.225
		c2.86,3.602,4.308,6.07,4.308,7.338c0,0.756-0.26,1.265-0.887,1.775c-0.56,0.43-1.972,0.743-4.059,0.952v1.763h32.911v-1.763
		c-1.764,0-3.551-0.522-5.184-1.463c-2.285-1.396-5-4.046-8.108-7.975L248.381,228.363z"/>
	<path class="st0" d="M353.824,241.6c3.537,0.509,12.389,0.509,13.799,3.616c0.691,1.514-0.889,3.146-0.314,4.805
		c0.066,0.379,0.378,0.247,0.626,0.183c1.385-0.118,1.385-2.52,2.782-3.159c0.574-0.248,1.645,0,2.218,0.261
		c3.226,1.122,7.782,7.088,9.492,9.935c7.089,11.436,4.987,25.757-3.095,35.874c-0.77,0.758-1.475,1.448-2.35,2.153
		c-1.84,1.945-3.863,3.67-6.188,4.74c-2.48,1.201-4.192-0.511-6.658-0.693c-3.786-0.313-6.645,1.006-9.557,2.402
		c0,0.393-0.756,0.066-1.004,0.066c-1.215-0.315-1.842-1.15-2.846-1.894c-1.725-1.267-3.42-2.532-3.877-4.87
		c-0.496-3.055,0.639-7.297,2.152-9.504c1.331-1.893,3.029-3.603,3.67-5.94c0.314-1.267-0.119-2.676-0.248-3.811
		c-0.642-2.964-1.201-4.87-4.375-5.888c0,0.327-1.136,1.345-1.318,1.658c-0.313,0.627-0.56,1.135-0.835,1.762
		c-0.742,1.972-0.742,4.557-1.633,6.396c-1.018,1.958-2.284,3.486-3.731,5.066c-1.45,1.906-2.795,4.125-3.853,6.07
		c-0.704,1.449-0.325,3.667-1.593,4.816c0,0.053,0,0.184,0,0.248c-0.757-0.064-2.101-1.893-2.715-2.468
		c-1.724-1.514-2.78-3.407-4.008-5.247c-3.603-6.658-4.597-13.537-3.395-21.971c0.364-2.01,1.201-4.348,2.154-6.07
		c3.852-7.963,10.053-13.85,18.458-16.763c1.79-0.574,3.682-0.875,5.458-1.148C351.916,242.044,352.989,241.98,353.824,241.6z"/>
	<path d="M189.27,460.486l0.823,0.183c1.396,0.249,1.893,0.575,2.035,0.706c0,0,0.117,0.182,0.117,0.56
		c0,0.262-0.051,0.457-0.117,0.757l-2.545,13.173c-0.132,0.757-0.378,1.136-0.497,1.318c-0.194,0-0.561,0.066-1.082,0.066
		c-0.313,0-0.744,0-1.201-0.066l-0.822-0.053l-0.197,0.823l-0.312,1.58l21.201,3.29L210.04,477l-1.214-0.888l-0.758-0.561
		l-0.562,0.744c-1.162,1.408-1.972,2.152-2.729,2.4c-0.378,0.145-1.017,0.209-1.776,0.209c-0.691,0-1.526-0.064-2.4-0.209
		l-5.195-0.809c-0.249-0.064-0.433-0.131-0.562-0.131c0-0.182,0.065-0.444,0.13-0.757l1.137-5.757l0.117-0.064l4.439,0.638
		c1.645,0.249,2.532,0.628,2.78,0.875c0.065,0.143,0.247,0.327,0.247,0.954c0,0.183-0.064,0.392-0.064,0.639l-0.053,0.889
		l0.823,0.182l1.579,0.315l1.71-8.408l0.444,0.052l1.71,0.263l0.758-6.267l-20.561-3.173l0,0l-7.793-1.945l-11.32,11.75
		l-2.858-15.301l-7.779-2.023l-0.444,1.516l-0.313,0.887l0.888,0.248c1.019,0.313,1.515,0.641,1.696,0.822v0.197
		c0,0.312-0.051,0.822-0.248,1.447l-3.732,11.644c-0.444,1.332-0.823,1.828-1.005,2.037c-0.131,0.052-0.314,0.118-0.771,0.118
		c-0.248,0-0.626-0.066-1.069-0.184l-0.875-0.208l-0.274,0.836l-0.496,1.526l9.425,2.467l0.38-1.526l0.129-0.757l-0.755-0.327
		c-1.137-0.431-1.595-0.678-1.659-0.809c-0.053-0.144-0.053-0.184-0.053-0.327c0-0.379,0.053-0.875,0.327-1.696l2.65-8.422
		l2.715,14.739l1.724,0.392l10.809-11.213l-2.729,8.602c-0.379,1.137-0.68,1.463-0.743,1.528c-0.131,0.066-0.314,0.13-0.705,0.13
		c-0.314,0-0.771-0.064-1.332-0.195l-0.822-0.118l-0.248,0.745l-0.509,1.58l11.07,2.793l0.588-1.385l0.364-0.951l-0.952-0.314
		c-1.07-0.326-1.566-0.705-1.841-0.887v-0.197c0-0.182,0.078-0.442,0.143-0.756l4.113-12.728c0.365-1.137,0.64-1.58,0.758-1.633
		c0.064-0.065,0.248-0.065,0.561-0.065c0.392,0,0.835,0.065,1.409,0.183l0.81,0.184V460.486z"/>
	<path class="st0" d="M40.004,271.925c1.697,1.137,1.123,5.367,1.266,7.586c0.118,1.018,0.184,1.957,0.432,2.977
		c0,0.821,0.064,1.645,0.064,2.467c0.444,2.219,0.889,4.359,1.397,6.58c0.575,2.402,1.631,4.425,2.65,6.527
		c0.757,1.827,1.527,3.668,2.401,5.364c0.889,1.267,1.593,2.533,2.337,3.812c0.639,0.993,1.149,2.192,1.789,3.342
		c1.579,2.545,8.041,11.449,7.336,14.111c-0.952,3.421-5.456,3.853-8.42,4.935c0-0.247-0.066-0.195-0.183-0.064
		c-0.953-0.066-2.532,0.51-3.42,0.952c-2.533-0.064-8.355,2.468-10.261,3.982c-2.089,1.462-3.852,3.485-5.613,5.327
		c-1.528,1.631-3.107,3.224-4.622,4.803c-1.41,1.332-2.742,2.599-4.061,3.983c-0.379,0.183-1.2,0.064-1.645,0
		c-0.184-0.496-0.248-1.018-0.431-1.514c-0.523-1.398-0.9-2.846-1.475-4.244c-1.58-4.047-2.964-7.963-4.674-12.022
		c-1.019-2.911-1.958-5.704-2.977-8.604c-1.137-3.107-2.221-6.07-3.291-9.243c-0.573-2.401-1.135-4.998-1.695-7.401
		c-0.393-1.643-1.476-14.36,0.365-14.804c0.379-0.117,0.874,0.065,1.148,0.378c1.515,1.136,2.585,2.717,3.852,3.983
		c4.164,3.811,8.537,6.904,13.929,8.471c0-0.248,1.136-1.252,1.267-2.337c0.184-1.513,0.313-3.093,0.496-4.606
		C29.561,287.238,33.607,278.741,40.004,271.925z"/>
	<path class="st0" d="M452.476,278.363c1.45,1.017,2.467,2.218,3.603,3.55c4.686,5.249,7.088,11.71,8.93,18.276
		c0.248,1.137,0.377,5.326,1.018,5.889c0.365,0.457,1.318,0.457,1.881,0.248c2.74-0.954,5.208-3.029,7.661-4.621
		c1.829-1.137,3.799-2.221,5.249-3.983c0.589-0.757,1.461-1.384,2.036-1.579c1.005-0.574,3.421-3.537,4.229-1.841
		c1.594,3.42,0.078,13.931-0.756,17.415c-0.941,4.23-2.208,8.342-3.67,12.141c-1.318,3.29-2.729,6.331-3.682,9.621
		c-0.678,1.775-1.382,3.473-2.009,5.117c-1.332,3.291-2.468,6.593-3.733,10.066c-0.824,2.977-1.45,6.265-2.586,9.125
		c-0.065,0-0.143,0-0.209,0c0,0.064,0,0.117,0,0.182c-0.953,0.066-4.621-3.668-5.312-4.621c-0.511-0.756-1.07-1.514-1.566-2.402
		c-2.991-3.85-6.41-8.158-10.262-11.331c-1.592-1.136-3.733-2.597-5.574-3.342c-3.538-1.724-9.87-2.729-10.574-7.48
		c0-0.066-0.052-0.131-0.052-0.183c-0.379-5.065,3.471-10.705,5.444-14.738c0.691-1.528,3.602-7.336,3.98-8.172
		c1.971-3.931,4.06-7.664,4.935-12.141c0.639-2.729,0.756-6.971,0.756-9.883c-0.117-1.084-0.756-4.047-0.183-4.87
		c0-0.063,0.065-0.063,0.065-0.13C452.214,278.61,452.345,278.493,452.476,278.363z"/>
	<path class="st0" d="M95.565,314.888c2.479,0.562,5.443,2.977,7.597,4.23c1.973,1.084,3.916,2.102,5.823,3.107
		c2.35,1.58,4.556,3.095,6.697,4.621c1.409,0.692,2.61,1.333,3.942,2.024c3.354,2.088,6.632,4.177,9.986,6.213
		c3.173,2.012,6.526,3.852,9.621,6.005c0.823,0.628,2.023,0.954,2.585,1.829c0.077,0.065,0.077,0.13,0.144,0.182
		c0.313,0.64-0.887,4.688-0.953,5.822c0,2.154,1.135,3.551,1.906,5.326c0.379,0.065,0.064,0.315,0,0.444
		c-1.279,0-2.858-1.332-3.931-2.037c-3.054-1.944-6.199-3.784-9.241-5.821c-3.407-2.258-7.089-4.1-10.432-6.383
		c-3.942-2.469-7.793-5.066-11.854-7.403c-3.027-1.841-6.266-3.668-9.164-5.757c-1.084-0.627-2.284-1.397-3.354-2.219
		C92.34,322.669,93.281,317.095,95.565,314.888z"/>
	<path d="M396.081,424.912l0.248-0.118c1.082-0.56,1.723-0.77,2.036-0.77c0.183,0,0.64,0.262,1.267,1.017l8.733,10.836
		c0.562,0.68,0.692,1.059,0.692,1.266c-0.066,0.119-0.379,0.627-1.449,1.385l-0.836,0.56l0.705,0.836l0.888,1.071l9.935-6.397
		l-1.018-1.332l-0.498-0.691l-0.768,0.443c-1.005,0.641-1.631,0.822-1.946,0.822c-0.142,0-0.638-0.261-1.201-0.952l-8.745-10.94
		c-0.561-0.704-0.706-1.019-0.706-1.136c0.146-0.247,0.458-0.704,1.476-1.332l0.953-0.639l-0.77-0.823l-0.953-1.148l-9.425,6.03l0,0
		l-19.113,10.613l3.916,6.031l1.332-0.771l0.824-0.431l-0.38-0.77c-0.511-1.017-0.692-1.775-0.692-2.271
		c0-0.195,0.065-0.312,0.065-0.444c0.116-0.456,1.007-1.136,2.912-2.22l0.131-0.065l0.182-0.117
		c0.248-0.145,0.457-0.209,0.562-0.262l8.553,12.075c0.507,0.77,0.69,1.202,0.69,1.411l-0.065,0.182
		c0,0.132-0.248,0.561-1.516,1.268l-1.004,0.561l0.756,0.888l0.81,1.019l10.654-5.758l-1.02-1.397l-0.444-0.64l-0.69,0.327
		c-1.201,0.561-1.775,0.835-2.154,0.835c-0.131,0-0.574-0.208-1.397-1.409l-8.409-11.959c0.118-0.064,0.249-0.131,0.366-0.248
		c2.036-1.135,3.302-1.58,3.996-1.58h0.117c0.51,0.066,1.332,0.562,2.467,1.764l0.511,0.561l0.626-0.365l1.527-0.836
		L396.081,424.912z"/>
	<path class="st0" d="M152.077,291.468c2.833,0.496,4.557,0,3.995,3.473c-1.02,5.457-4.7,9.688-9.765,11.449
		c-1.632,0.393-3.225,0.889-4.922,1.345c-0.627,0.312-1.084,0.81-1.462,1.319c-0.117,0.129-0.183,0.195-0.326,0.26
		c-0.105,2.716,0.392,4.869,2.153,6.566c0.065,0,0.131,0,0.209,0c0-0.064,0-0.104,0-0.182c0.039,0,0.117,0,0.182,0
		c0.066-0.875-0.391-1.711,0.132-2.599c0.81-1.579,4.229-1.317,5.574-0.743c1.201,0.625,2.337,1.514,2.833,2.832
		c1.33,3.303-2.337,5.131-4.739,6.2c-0.521,0.132-0.889,0.315-1.397,0.457c-2.154,0-4.059,0.692-6.213,0.81
		c-5.053,0.248-13.341-1.449-14.738-6.697c-0.953-3.105,3.42-6.396,6.331-5.26c2.089,1.018,2.911,2.859,3.603,4.934
		c2.154,0.066,1.593-5.744,0.456-6.761c-0.888-0.575-2.152-0.824-3.171-1.202c-1.268-0.391-2.533-0.887-3.799-1.527
		c-3.106-1.763-5.509-4.687-7.978-7.402c-1.579-1.645-3.027-3.42-4.686-5c-0.314-0.365-0.613-1.07-0.314-1.593
		c0.628-1.239,4.623-1.317,5.837-0.992c1.07,0.433,2.205,1.384,3.081,1.945c1.971,1.201,4.373,2.468,6.723,2.989
		c5.314,1.268,11.448,1.201,16.331-0.887C148.161,294.184,149.924,292.474,152.077,291.468z"/>
	<path class="st0" d="M348.248,273.937c0.38,0.064,0.705,0.064,1.083,0.13c-0.065,0.431,0.314,0.954,0.379,1.319
		c0.509,1.148,1.071,2.728,0.694,4.125c-0.577,2.076-2.471,3.551-3.474,5.378c-1.516,2.585-3.551,8.864-2.35,11.958
		c0.691,1.711,2.987,2.912,4.111,4.361c0.953,1.213,3.812,3.98,5.261,4.046c0.745,0,1.515-0.679,2.153-1.07
		c2.717-1.645,5.561-4.425,8.787-1.645c0.521,0.379,0.888,1.137,1.135,1.645c1.905,3.041,0.197,6.397-2.584,8.224
		c-0.705,0.51-1.201,1.072-2.024,1.201c-0.9,0.183-2.284,0.066-3.054-0.248c-0.497-0.379-0.992-0.705-1.566-1.019
		c-0.314-0.063-1.084-0.117-1.396,0.066c-0.068,0.131-0.068,0.184-0.132,0.248c-0.301,0.705,0.443,1.841,0.509,2.469
		c0.572,2.545-1.331,4.438-3.343,5.129c-0.078,0-0.209,0-0.26,0c0,0.314-1.896-0.365-2.221-0.43
		c-0.064,0.312-0.756,0.809-0.875,1.123c-0.639,1.017-0.951,2.153-1.723,3.172c-0.495,0.757-1.697,1.657-2.088,2.585
		c-0.184,0.274-0.315,0.901-0.184,1.214c0.641,1.645,3.159,1.527,4.426,2.207c1.839,0.834,3.667,1.971,5.393,2.857
		c0.951,0.444,2.258,0.81,2.832,1.764c0.953,1.201,1.018,2.401,0.953,4.047c0,3.42-0.759,6.84-1.566,9.881
		c-0.588,2.285-1.476,5.823-0.836,8.422c0.195,0.43,0.443,1.004,0.836,1.447c0.926,0.824,2.258,1.202,3.21,1.958
		c1.084,1.084,2.025,2.024,3.108,3.095c0,0.209-0.066,0.523-0.184,0.705c-1.593,2.037-5.392-2.467-8.354-1.58
		c-1.149,0.066-2.729,0.131-3.239-0.887c-0.064-0.117-0.064-0.314-0.064-0.432c-0.365-1.476,0.378-3.484,0.312-5.26
		c-0.116-4.047-1.76-7.469-1.318-11.775c0.184-1.201,1.45-4.23,0.888-5.314c-0.574-0.887-5.443-1.135-6.84-1.384
		c-3.852-0.771-8.995-1.409-10.939-5.194c-2.218-3.982-1.148-6.764,1.136-10.444c0.874-1.515,1.893-2.716,2.532-4.425
		c0.56-2.154,0.117-4.871,1.385-6.646c1.018-1.579,3.797-2.598,4.373-4.308c0.627-1.892-2.926-6.331-3.67-8.171
		c-0.639-1.45-1.018-3.525-0.822-5.432c0.496-4.164,5.433-8.041,7.402-11.645C347.179,279.184,347.361,276.404,348.248,273.937z"/>
	<path d="M440.518,396.441l0.248-0.184l1.149-1.201l-5-4.177l-15.38,13.407l1.45,1.084l0.574,0.442l0.575-0.442
		c1.005-0.823,1.567-1.02,1.841-1.02c0.184,0,0.626,0.131,1.383,0.836l10.574,9.543c0.681,0.626,0.89,1.018,0.89,1.215
		c-0.067,0.182-0.394,0.561-1.203,1.318l-0.77,0.691l0.706,0.705l1.121,1.135l15.379-13.406l-3.211-6.017l-1.478,0.443l-1.056,0.248
		l0.43,1.018c0.588,1.137,0.772,2.023,0.772,2.586c0,0.247-0.065,0.456-0.065,0.639c-0.262,0.627-0.954,1.646-2.481,2.964
		l-3.786,3.304c-0.262,0.248-0.442,0.312-0.511,0.391c-0.117-0.078-0.312-0.209-0.703-0.588l-4.673-4.308l3.224-2.78
		c1.266-1.07,2.035-1.449,2.35-1.449c0.431,0,1.005,0.195,1.776,0.835l0.625,0.562l0.641-0.562l1.318-1.161L440.518,396.441z"/>
	<path d="M85.615,422.458l0.523,0.312l1.201,0.771l4.1-5.066L74.547,406.65l-0.953,1.239l-0.576,0.771l0.771,0.574
		c1.136,0.875,1.332,1.201,1.332,1.332c0,0.117-0.131,0.496-0.692,1.201l-9.308,10.508c-0.757,0.81-1.136,0.992-1.267,0.992
		c-0.195,0-0.888-0.183-1.958-0.938l-0.771-0.575l-0.562,0.772l-0.952,1.266l16.827,11.893l6.136-3.604l-0.744-1.463l-0.392-0.822
		l-0.875,0.444c-1.409,0.691-2.611,1.006-3.356,1.006h-0.312c-0.771-0.053-1.972-0.628-3.604-1.764l-4.19-2.911
		c-0.182-0.129-0.312-0.195-0.312-0.261c0.065-0.117,0.196-0.3,0.379-0.561l4.124-4.738c0.118,0,0.184,0,0.248,0.066l3.539,2.467
		c1.449,1.004,1.893,1.567,1.958,1.828c0.078,0.26-0.131,0.691-0.692,1.578l-0.575,0.757l0.823,0.575l1.201,0.691L85.615,422.458z"
		/>
	<path d="M454.251,403.346l1.775,1.267l13.734-14.112l-6.201-4.687l-1.069,1.02l-0.707,0.756l0.757,0.627
		c0.693,0.574,0.941,0.952,1.02,1.148c0,0.117-0.184,0.574-0.821,1.268l-5.327,5.443l-0.314-9.309l-1.07-0.758l-10.327,0.379
		l2.794-2.846c1.201-1.213,2.285-1.775,3.29-1.892c0.196,0,0.38-0.065,0.562-0.065c0.836,0,1.79,0.249,2.741,0.874l0.628,0.392
		l0.574-0.521l1.123-1.137l-6.137-4.805l-13.223,13.551l1.514,1.516l14.36-0.705L454.251,403.346z"/>
	<path class="st0" d="M174.035,330.202c0.561,0.064,1.135,0.064,1.697,0.064c0.066,0.888,0,1.762,0,2.715
		c0.144,0.953,0.953,3.043,0.392,4.06c-1.136,1.696-5.197,2.598-7.023,3.604c-4.504,2.283-9.125,4.542-13.864,6.383
		c-1.514,0.64-3.028,1.58-4.687,2.037c0,0.064,0,0.182,0,0.247c-0.497,0-1.018,0.065-1.449,0.065c0-0.065,0-0.131,0-0.195
		c-0.065,0-0.194,0-0.248,0c0-0.053,0-0.183,0-0.248c0.054,0,0.183,0,0.248,0c0-0.392,5.823-3.159,6.632-3.668
		c0-0.262-0.117-0.326-0.378-0.393c-0.053,0.313-0.615,0.393-0.888,0.522c-2.898,0.628-5.432,2.22-8.473,2.65
		c0-0.065,0-0.118,0-0.184c-0.066,0-0.183,0-0.248,0c-0.065-0.456,6.462-4.62,7.337-5.143c0-0.04,0-0.118,0-0.184
		c0.064,0,0.116,0,0.183,0c0-0.064,0-0.13,0-0.183c-1.449-0.064-3.213,1.07-4.66,1.318c0-0.052,0-0.117,0-0.182
		c-0.327-0.066-0.274,0-0.274-0.314c0.392,0.066,0.575-0.314,0.77-0.496c1.515-1.409,3.734-2.361,5.639-3.172
		c1.072-0.705,2.271-1.201,3.395-1.775c3.42-1.58,6.905-3.237,10.325-4.817C170.17,332.109,172.639,331.337,174.035,330.202z"/>
	<path d="M375.898,440.356l0.262-0.117l1.829-0.64l-3.736-5.574l-18.916,8.615l0.89,1.449l0.442,0.705l0.759-0.326
		c0.874-0.379,1.514-0.496,1.825-0.496h0.248c0.276,0.117,0.642,0.314,1.084,1.07l6.842,12.023c0.326,0.626,0.366,0.953,0.366,1.084
		l-0.04,0.184c-0.079,0.129-0.392,0.56-1.593,1.07l-1.018,0.442l0.574,0.954l0.756,1.2l19.178-8.604l-1.28-6.644h-1.449h-0.991
		l0.039,1.006c0,0.312,0.078,0.561,0.078,0.887c0,1.214-0.261,1.959-0.574,2.414c-0.443,0.627-1.449,1.449-3.237,2.207l-4.739,2.141
		l-0.129,0.066c-0.185,0.143-0.314,0.209-0.367,0.209c-0.13-0.066-0.313-0.314-0.625-0.837l-3.056-5.183l3.995-1.84
		c1.318-0.641,2.206-0.823,2.65-0.823h0.117c0.326,0.079,0.835,0.392,1.541,1.279l0.43,0.679l0.705-0.312l1.513-0.691
		L375.898,440.356z"/>
	<path class="st4" d="M41.388,398.346c0.261,0,0.509,0.066,0.692,0.066h0.574c2.153,0,4.111-0.706,5.888-2.089
		c2.154-1.711,3.354-3.734,3.354-6.385v-0.392c-0.117-2.663-1.527-5.183-3.851-7.532c-2.298-2.402-4.948-3.916-7.729-4.36
		c-0.562-0.065-1.202-0.13-1.763-0.13c-2.219,0-4.189,0.705-5.966,2.022c-1.958,1.515-3.094,3.357-3.342,5.574v0.379l-0.705-0.562
		l-1.07-0.953l-5.954,4.543l7.272,7.6l5.325-3.996l0.693-0.496l-0.443-0.705c-0.51-0.939-0.823-1.826-0.823-2.65
		c0-0.312,0.064-0.691,0.183-1.018c0.248-1.201,1.084-2.467,2.468-3.525c1.593-1.279,3.173-1.775,4.752-1.775h0.325
		c1.698,0.053,3.146,0.758,4.479,2.089c1.201,1.136,1.724,2.337,1.724,3.538c0,0.195-0.065,0.379-0.065,0.51
		c-0.132,1.448-0.953,2.768-2.599,4.111c-1.463,1.123-2.911,1.711-4.425,1.764h-0.379c-1.345,0-2.61-0.365-3.602-1.137l-0.588-0.43
		l-0.562,0.43l-5.575,4.191l7.469,7.518l6.07-4.621l-1.384-1.201L41.388,398.346z"/>
	<path class="st0" d="M336.499,340.776c2.585,0.757,6.137,2.075,5.614,5.366c-0.118,1.33-0.68,2.35-0.994,3.484
		c-0.521,1.58-1.409,3.551-2.856,4.557c-0.953,0.691-2.533,0.561-3.734,0.889c-0.184,0-0.314,0-0.432,0
		c0,0.064-0.065,0.195-0.065,0.26c-5.195-0.195-9.882-4.817-15.262-3.615c-1.526,0.379-2.975,1.826-4.241,2.467
		c-0.497,0.262-2.154,1.331-2.272,0.064c-0.131-0.705,5.234-7.271,6.188-7.663c1.409-0.312,2.925,0.77,4.255,0.823
		c1.007,0.064,1.843-0.312,2.717-0.432c2.911-0.064,6.579-0.13,8.615,2.012c1.582,0.078,0.313-6.697,2.468-8.029
		C336.499,340.905,336.499,340.841,336.499,340.776z"/>
	<path d="M219.217,481.425c-1.2-0.116-1.788-0.365-2.036-0.561c0-0.078-0.117-0.262-0.117-0.705c0-0.184,0.064-0.43,0.064-0.692
		l0.94-10.247l12.546,15.691h2.01l1.593-17.402c0.131-1.084,0.378-1.33,0.378-1.33l0.118-0.066c0.196-0.117,0.836-0.182,2.154-0.248
		l0.77-0.064l0.104-0.758l0.209-1.579l-10.195-0.64v1.592v0.889l0.887,0.065c1.02,0.116,1.698,0.314,1.973,0.431
		c0.038,0.131,0.117,0.443,0.117,0.888v0.562l-0.758,8.42l-10.821-13.473l-7.154-0.641l-0.184,1.594l-0.064,0.953l0.939,0.064
		c0.51,0.039,0.952,0.248,1.267,0.496c0.326,0.249,0.639,0.562,0.953,0.954l-1.332,13.603c-0.064,0.887-0.248,1.252-0.312,1.383
		c-0.393,0.143-1.071,0.262-2.221,0.262h-0.821l-0.131,0.822l-0.183,1.58l10.195,0.822v-1.711v-0.887L219.217,481.425z"/>
	<path d="M131.556,442.954c-0.065,0.13-0.117,0.195-0.183,0.26v0.119c-0.249,0.312-0.379,0.625-0.379,1.017
		c0,0.185,0.065,0.38,0.065,0.496l0.064,0.209l0.118,0.183c0.196,0.313,0.457,0.562,0.954,0.81c0.312,0.21,0.626,0.274,0.952,0.274
		c0.378,0,0.691-0.064,0.953-0.209c0.496-0.183,1.122-0.496,1.514-1.267c0.249-0.365,0.379-0.888,0.379-1.317
		c0-0.444-0.13-0.836-0.248-1.266c-0.379-0.889-1.083-1.516-2.036-1.973c-0.562-0.248-1.136-0.312-1.828-0.312
		c-1.136,0-2.401,0.312-3.785,0.887c-1.789,0.771-3.944,2.036-6.411,3.865c0.132-1.02,0.196-1.971,0.196-2.912
		c0-1.318-0.13-2.584-0.509-3.746c-0.691-2.65-2.154-4.479-4.425-5.561c-0.562-0.248-1.137-0.511-1.763-0.511h-0.327
		c-0.626,0.146-1.2,0.458-1.578,1.019c-0.132,0.261-0.196,0.444-0.196,0.705c0,0.889,0.757,1.515,1.331,1.842
		c0.627,0.496,1.136,1.057,1.515,1.631c0.639,0.875,1.019,2.284,1.136,3.916c0.065,0.379,0.065,0.771,0.065,1.15
		c0,1.317-0.183,2.715-0.562,4.098l-2.91,5.014c-0.378,0.691-0.692,0.953-0.94,1.084h-0.144c-0.443,0-1.018-0.066-1.763-0.458
		l-0.953-0.496l-1.266,2.271l10.888,5l0.758-1.2l0.561-0.889l-0.992-0.508c-1.084-0.511-1.541-0.941-1.658-1.201v-0.118
		c0-0.13,0.065-0.392,0.248-0.705l3.238-5.574c2.518-2.076,4.804-3.603,6.827-4.622
		C129.924,443.214,130.994,442.954,131.556,442.954z"/>
	<polygon points="412.163,410.683 419.186,434.22 438.234,420.173 413.495,409.534 	"/>
	<path d="M131.686,452.066c-0.691,1.645-1.135,3.238-1.135,4.805c0,1.396,0.314,2.78,0.953,4.111
		c1.331,2.728,3.851,4.556,7.206,5.758c1.892,0.705,3.668,1.018,5.456,1.018c1.449,0,2.898-0.248,4.294-0.77
		c3.042-1.137,5.197-3.211,6.712-6.383c0.704-1.58,1.135-3.16,1.135-4.74c0-1.397-0.326-2.781-1.018-4.126
		c-1.318-2.714-3.721-4.685-7.206-5.951c-1.841-0.679-3.604-0.993-5.393-0.993c-1.448,0-2.898,0.248-4.294,0.744
		C135.303,446.687,133.149,448.893,131.686,452.066z"/>
	<path d="M53.424,413.986c2.272,1.566,4.557,2.402,6.697,2.65c0.379,0.077,0.757,0.077,1.136,0.077c2.024,0,3.733-0.638,5.131-1.97
		c1.396-1.332,2.102-2.859,2.102-4.557c0-0.443-0.079-0.953-0.145-1.383c-0.378-1.907-1.514-3.8-3.354-5.641
		c0.326-0.196,0.574-0.248,0.758-0.248c0.194,0,0.703,0.184,1.787,1.07l0.628,0.51l0.64-0.574l1.136-1.201l-8.93-7.599l-1.019,1.202
		l-0.691,0.77l0.822,0.641c0.888,0.679,1.136,1.24,1.136,1.449c0,0.063-0.066,0.182-0.314,0.496
		c-2.218-1.633-4.438-2.586-6.593-2.782c-0.312,0-0.678-0.065-0.991-0.065c-2.089,0-3.812,0.693-5.261,2.102
		c-1.332,1.267-2.089,2.781-2.089,4.545c0,0.443,0.053,0.887,0.118,1.318c0.391,1.906,1.462,3.876,3.303,5.704
		c-0.379,0.247-0.691,0.327-0.901,0.327c-0.184,0-0.745-0.184-1.632-1.02l-0.627-0.64l-0.704,0.64l-1.201,1.267l8.785,7.4
		l1.084-0.951l0.822-0.693l-0.822-0.692c-0.939-0.888-1.202-1.265-1.202-1.462C53.032,414.625,53.111,414.429,53.424,413.986z"/>
	<path d="M101.061,443.632l3.094-18.094l-1.515-1.07l-17.912,10.315c-1.252,0.705-2.152,1.018-2.52,1.082
		c-0.064,0-0.129,0.053-0.248,0.053c-0.325,0-0.638-0.117-0.834-0.183l-0.757-0.456l-0.511,0.768l-0.821,1.332l7.402,4.308
		l0.821-1.266l0.444-0.771l-0.691-0.496c-0.823-0.574-1.136-0.821-1.202-0.952c0.066-0.131,0.184-0.248,0.379-0.457
		c0.314-0.184,0.641-0.366,0.953-0.562l10.496-5.888c-0.117,0.588-0.262,1.266-0.365,2.037c-1.019,6.252-1.659,9.49-1.972,10.195
		c-0.392-0.078-0.888-0.209-1.71-0.641l-0.757-0.457l-0.444,0.772l-0.94,1.383l9.609,5.574l0.822-1.267l0.443-0.757l-0.758-0.508
		c-0.378-0.314-0.703-0.641-0.835-1.07v-0.445C100.734,445.538,100.865,444.794,101.061,443.632z"/>
	<polygon class="st3" points="251.423,345.567 230.615,345.567 241.24,323.74 	"/>
	<polygon class="st3" points="251.423,147.699 230.615,147.699 241.24,125.872 	"/>
	<path class="st0" d="M319.436,111.185c2.103,0.313,3.878,1.566,5.512,2.52c1.969,1.201,4.046,2.35,6.084,3.616
		c1.892,1.005,4.553,1.514,6.251,3.106c0.574,0.562,0.641,1.449,0.209,2.089c-0.575,0.992-1.514,0.992-2.677,1.267
		c-4.295,0.81-9.164-1.201-11.435-4.504c-0.836-1.07-1.332-2.271-1.971-3.421C320.52,114.722,319.255,112.752,319.436,111.185z"/>
	<path class="st0" d="M134.283,286.964c1.332,0,2.677,0.131,3.995,0.274c1.514,0.249,8.29,1.828,7.337,4.1
		c-0.443,1.149-2.153,1.019-2.833,1.646c-0.273-0.067-0.588-0.131-0.835-0.131c-0.066,0-0.117,0-0.183,0
		c0,0.379-0.823,0.522-1.137,0.573c-2.284,0.823-11.213-0.626-12.662-2.401C125.929,288.505,133.083,287.488,134.283,286.964z"/>
	<path class="st0" d="M146.934,448.529c2.037,0.743,3.238,2.01,3.733,3.668c0.197,0.627,0.262,1.266,0.262,1.958
		c0,1.319-0.392,2.793-1.137,4.425c-1.135,2.402-2.61,4.049-4.372,5.066c-1.071,0.574-2.089,0.821-3.173,0.821
		c-0.745,0-1.566-0.129-2.467-0.442c-1.945-0.758-3.029-1.893-3.604-3.539c-0.183-0.64-0.248-1.266-0.248-1.971
		c0-1.318,0.314-2.781,1.136-4.49c1.084-2.469,2.533-4.112,4.309-5.066c1.083-0.574,2.206-0.822,3.303-0.822
		C145.355,448.136,146.19,448.267,146.934,448.529z"/>
	<path d="M358.548,119.409c0,0.053,0,0.118,0,0.184c-1.632-0.131-4.476-0.562-5.862,0.065c-2.987-0.131-6.212,1.696-6.46,4.869
		c-0.131,1.07,0.365,2.284,0.69,3.172c0.197,0.117,0.444,0.183,0.628,0.248c0.064-1.645,1.266-4.229,2.598-5.13
		c1.959-1.527,7.778-2.337,10.69-2.337C360.911,119.722,359.189,119.409,358.548,119.409z"/>
	<path d="M369.384,262.814c-2.286,0.365-2.782,0.053-4.621,1.515c-0.065,0.888,1.135,0.952,1.657,0.757
		c4.229-1.135,3.916,3.303,5.496,5.378c1.136,1.397,2.794,2.024,3.995,3.108c0.808,0.757,1.202,1.892,2.077,2.336
		c0.325,0.184,0.638,0.248,1.017,0.379c0-0.065,0-0.131,0-0.195c0.053,0,0.117,0,0.184,0c0-0.054,0-0.184,0-0.249
		c-0.131-2.27-1.332-5.3-3.213-6.462c-0.953-0.496-1.854-0.992-2.676-1.449C371.668,266.037,372.034,264.263,369.384,262.814z"/>
	<path class="st0" d="M50.318,334.548c0.443-0.052,0.81-0.052,1.266,0c0,0,0,0.065,0,0.131c0.431,0.066-0.248,1.02-0.326,1.201
		c-1.514,1.893-4.687,3.354-6.58,4.804c-1.449,1.15-3.041,2.846-4.738,3.616c0,0.053,0,0.117,0,0.184
		c-0.573,0.064-0.888-0.771-0.953-1.201c-1.136-4.688,6.384-7.336,9.621-8.225C49.115,334.927,49.743,334.679,50.318,334.548z"/>
	<path class="st0" d="M439.069,338.857c1.907,0.262,3.29,1.201,4.804,1.972c3.551,1.631,9.621,4.804,6.711,9.804
		c-1.566-0.131-9.922-8.211-11.057-9.934C439.251,340.202,439.002,339.562,439.069,338.857z"/>
	<polygon class="st0" points="417.556,416.884 429.698,422.209 421.04,428.593 	"/>
	<path d="M338.759,254.054c-0.131,0.574-0.248,1.149-0.457,1.71c-0.562,1.267-1.895,1.958-2.324,3.29
		c-0.394,1.58,0,3.865-0.821,5.248c0,0.064,0,0.145,0,0.183c-0.901-0.038-1.843-0.875-2.925-0.431
		c-2.143-0.065-3.096,1.384-3.918,3.041c0,0.066,0,0.131,0,0.184c0.066,0,0.184,0,0.248,0c0,0.379,0.641,0.131,0.823,0.064
		c1.019-0.496,1.788-1.447,3.106-1.33c1.645,0.13,2.913,2.779,4.818,1.578c1.695-1.318,0.248-4.934,0.613-7.088
		c0.13-1.319,1.396-2.402,1.723-3.721c0.065-0.836-0.261-1.894-0.457-2.662C339.073,254.054,338.941,254.054,338.759,254.054z"/>
	<path class="st0" d="M85.434,422.146l-1.084-0.889l-0.626-0.51l-0.64,0.561c-0.744,0.837-1.267,1.02-1.449,1.02
		c-0.444,0-1.332-0.315-2.598-1.202l-3.538-2.467l3.669-4.242c0.182-0.249,0.313-0.314,0.378-0.38c0.196,0,0.392,0.131,0.64,0.313
		l4.491,3.225c1.332,0.953,1.71,1.462,1.763,1.788l0.065,0.184c0,0.444-0.183,1.083-0.693,1.957L85.434,422.146z"/>
	<path d="M362.803,275.268c-1.201,1.696-0.624,3.916,0.89,5.3c0.573,0.641,1.449,1.02,1.775,1.789
		c0.758,1.318,0.758,3.146,0.939,4.621c0.064,0,0.184,0,0.261,0c0-0.209,0.065-0.391,0.132-0.64
		c0.065-0.065,0.116-0.065,0.182-0.065c0,2.153,2.154,2.024,3.237,3.225c0.497,0.9,1.201,1.893,1.697,2.846
		c0.64,0.066,0.887-0.692,0.953-1.201c0.13-3.289-2.976-3.484-4.425-5.496c-0.836-1.07-0.575-2.729-0.953-3.995
		c-0.51-1.513-2.102-1.696-3.043-3.093c-0.69-1.018-0.299-2.584-1.46-3.225C362.92,275.333,362.869,275.268,362.803,275.268z"/>
	<path class="st0" d="M166.177,292.029c1.083,0,2.088,0.132,2.911,0.575c1.318,0.94,1.136,3.367,0.326,4.425
		c-1.41,1.528-4.622,2.859-6.724,2.663c0,0.066,0,0.131,0,0.196c0.313,0.065,0.132,0.431,0.132,0.679
		c-1.071-0.117-2.338,0.836-3.355-0.117c-0.314,0,0.13-1.514,0.248-1.892C160.667,294.705,163.318,293.871,166.177,292.029z"/>
	<path class="st0" d="M165.367,146.994c2.963,0.574,7.401-0.496,9.935,0.64c0,1.515-1.449,1.893-2.403,2.78
		c-0.573-0.065-1.396-0.13-1.892,0.118c-2.154-0.053-3.93-0.496-5.64-1.254c0-0.574-0.51-1.331-0.823-1.645c0-0.066,0-0.209,0-0.248
		C164.858,147.385,165.119,147.124,165.367,146.994z"/>
	<path class="st0" d="M375.468,440.421l-0.953,0.392l-0.953,0.444l0.511,0.887c0.246,0.496,0.376,0.889,0.376,1.136
		c0,0.183-0.064,0.249-0.064,0.314c-0.118,0.183-0.705,0.705-2.402,1.449l-3.982,1.775l-0.182,0.131l-2.742-4.805
		c-0.051-0.195-0.117-0.26-0.182-0.377c0.131-0.066,0.248-0.145,0.442-0.184l5.065-2.363c1.084-0.496,1.828-0.691,2.338-0.691h0.442
		l0.185,0.064c0.273,0,0.952,0.379,1.723,1.332L375.468,440.421z"/>
	<path class="st0" d="M207.324,467l-1.148-0.261l-0.888-0.248l-0.248,0.887c-0.379,1.085-0.64,1.398-0.771,1.463
		c-0.184,0.117-0.496,0.184-1.136,0.184c-0.497,0-1.136-0.066-1.945-0.184l-4.438-0.705l1.019-5.182v-0.131
		c0-0.117,0.053-0.248,0.053-0.327c0.195,0,0.378,0,0.691,0.079l5.64,0.809c1.527,0.195,2.337,0.705,2.729,1.018
		c0.183,0.184,0.442,0.705,0.442,1.973V467z"/>
	<path class="st4" d="M247.376,279.759c-2.885,0-5.248,2.336-5.248,5.182c0,2.847,2.363,5.184,5.248,5.184
		c2.885,0,5.248-2.337,5.248-5.184C252.624,282.095,250.261,279.759,247.376,279.759z"/>
	<path class="st4" d="M247.376,379.365c-2.885,0-5.248,2.338-5.248,5.183c0,2.846,2.363,5.183,5.248,5.183
		c2.885,0,5.248-2.337,5.248-5.183C252.624,381.702,250.261,379.365,247.376,379.365z"/>
	<path class="st4" d="M247.376,181.419c-2.885,0-5.248,2.337-5.248,5.183s2.363,5.183,5.248,5.183c2.885,0,5.248-2.337,5.248-5.183
		S250.261,181.419,247.376,181.419z"/>
	<path d="M336.109,274.067c-0.823,0.392-1.58,0.822-2.402,1.137c-0.772,0.377-1.397,0.704-2.154,1.083
		c-0.77,0.312-1.828,0.117-2.468,0.573c0.497,0,0.888,1.319,1.907,1.267c1.135,0.053,2.19-0.834,3.145-1.227
		c0.706-0.301,1.41-0.496,2.154-0.679c-0.052,0.313,0.523,0.639,0.641,0.888c0.691,1.266,0.691,2.533,2.219,2.963
		c0-0.064,0-0.183,0-0.248c0.064,0,0.132,0,0.183,0c0.066-0.77-1.463-4.438-2.089-5.117
		C336.814,274.497,336.489,274.249,336.109,274.067z"/>
	<path class="st0" d="M440.074,396.688l-0.742,0.562l-0.823,0.64l0.678,0.771c0.706,0.744,0.888,1.253,0.888,1.449
		c-0.051,0.248-0.43,0.888-1.695,1.945l-3.224,2.793l-0.132,0.131l-0.131-0.131l-4.242-3.785c-0.118-0.131-0.184-0.209-0.248-0.327
		c0.064-0.065,0.182-0.194,0.38-0.378l3.993-3.537c1.07-0.953,2.009-1.268,2.533-1.332h0.183c0.495,0,1.136,0.184,2.023,0.822
		L440.074,396.688z"/>
	<path class="st0" d="M58.907,401.622l-7.468,7.09c-0.822-1.02-1.07-1.971-1.07-2.716c0-1.018,0.496-2.089,1.841-3.29
		c1.267-1.213,2.467-1.788,3.668-1.828h0.312C57.014,400.878,57.889,401.126,58.907,401.622z"/>
	<path class="st0" d="M55.434,412.001l7.468-6.958c0.822,0.953,1.136,1.841,1.136,2.729c0,0.874-0.497,2.036-1.827,3.237
		c-1.268,1.123-2.468,1.762-3.67,1.762C57.523,412.771,56.505,412.588,55.434,412.001z"/>
	<path class="st0" d="M116.191,146.602c1.958,0.183,3.981,0.261,5.953,0.326c0,0.065,0,0.183,0,0.248c0.064,0,0.13,0,0.183,0
		c0,1.462-2.088,2.154-3.043,2.715c-1.135,0-6.383-0.496-5.495-2.584C114.102,146.668,115.615,146.785,116.191,146.602z"/>
	<path class="st0" d="M171.124,124.318c2.468,1.788,1.384,6.905,4.243,7.977c0,0.064,0,0.13,0,0.208c-0.262,0-0.575,0-0.823-0.078
		c-0.064,1.972,0.823,3.864,1.266,5.51c0.575,2.088,0.954,4.164,1.45,6.2c-0.379,0-0.81,0.51-1.202,0.574
		c-1.2,0.444-3.668,0.313-4.686-0.247C170.106,143.443,170.354,126.289,171.124,124.318z"/>
	<path class="st0" d="M346.916,449.663c-0.183-0.313-0.248-0.496-0.248-0.626c0.065,0,0.248-0.118,0.706-0.327
		c0.992-0.377,1.828-0.496,2.52-0.496c0.379,0,0.757,0.065,1.084,0.119c0.938,0.312,1.645,0.9,2.074,1.971
		c0.328,0.626,0.392,1.135,0.392,1.58c0,0.43-0.064,0.821-0.326,1.135c-0.496,0.836-1.515,1.58-3.342,2.219h-0.145l-0.182-0.065
		L346.916,449.663z"/>
	<path class="st0" d="M118.658,122.947c0.64,0.444,0.888,1.149,1.2,1.71c1.084,4.178,2.154,8.225,3.238,12.285
		c0.377,1.383,1.384,4.359,1.2,5.744c-0.064,1.07-0.639,1.2-1.331,1.657c-1.201,0.053-3.355,0.183-4.112-0.587
		C117.653,142.503,117.77,124.984,118.658,122.947z"/>
	<path class="st0" d="M167.574,124.344c0.457,0.431,0.705,0.992,0.77,1.632c-0.066,1.2-0.066,2.415,0,3.615
		c0.116,3.159,0,6.462,0,9.608c0.065,1.267,0.116,2.99-0.131,4.19c-0.314,0.561-0.64,1.071-0.953,1.58
		c-0.888-0.066-3.851-0.066-4.361-0.836c-0.26-0.365-0.442-1.266-0.442-1.893c0.378-3.094,1.645-6.253,2.532-9.23
		C165.745,130.167,166.19,126.928,167.574,124.344z"/>
	<path class="st0" d="M115.615,122.334c0.641,0.365,0.692,0.81,0.758,1.515c0.195,2.715,0.131,5.679,0,8.407
		c-0.392,3.159-0.066,6.396-0.117,9.49c-0.065,0.627-0.132,1.579-0.641,2.101c-0.625,0.627-3.615,0.314-4.751,0.248
		c0.065-1.083-0.249-2.219,0-3.355c0.392-2.533,1.332-5.065,1.905-7.533C113.58,129.344,114.467,125.858,115.615,122.334z"/>
	<path d="M363.874,254.184c-0.822,1.084-1.266,2.286-1.905,3.487c-1.385,2.336-3.851,4.621-2.221,7.975
		c0.276-0.065,0.588-0.247,0.705-0.443c0.066,0,0.131-0.066,0.197-0.118c0.366-1.084,0.757-2.154,1.135-3.173
		c0.823-1.513,2.403-2.78,2.912-4.439c0.196-1.201-0.328-2.4-0.64-3.353C364.005,254.12,363.941,254.12,363.874,254.184z"/>
	<path class="st5" d="M41.14,398.28l-0.509,0.379c-0.692,0.509-1.201,0.641-1.449,0.641c-0.315,0-0.771-0.249-1.396-0.954
		l-2.089-2.089l0.13-0.065C37.537,397.328,39.365,398.033,41.14,398.28z"/>
	<path d="M369.018,273.871c-2.466,1.724,4.061,3.29,4.427,1.592C373.64,274.132,369.907,274.132,369.018,273.871z"/>
	<path class="st1" d="M114.663,287.538c0.496,0.08,1.972,0.328,1.449,1.071c-0.679,0.901-4.1,0.522-4.805-0.184
		c-0.248,0-0.131-0.117,0-0.247C111.883,287.409,113.775,287.866,114.663,287.538z"/>
	<path class="st6" d="M29.182,385.683v0.209c0,1.697,0.574,3.354,1.526,5.053l-0.143,0.064l-2.193-2.284
		c-0.64-0.562-0.771-1.005-0.771-1.253c0.065-0.131,0.248-0.443,1.018-1.148L29.182,385.683z"/>
	<path d="M322.114,128.966c-0.197,0.117-0.392,0.261-0.575,0.379c-0.065,1.2,1.318,1.71,2.271,1.514
		C323.876,129.605,323.314,129.148,322.114,128.966z"/>
	<path class="st1" d="M143.474,107.452c0.497,0.13,1.07,0.248,1.633,0.248c-0.054,0.195-0.054,0.312-0.054,0.456
		c0.328-0.078,0.262-0.144,0.262,0.118c-0.064,0-0.208,0.065-0.262,0.065c0,0.064,0,0.195,0,0.247c-0.063,0-0.129,0-0.194,0
		c0,0.065,0,0.131,0,0.196c-0.066,0-0.117,0-0.183,0c0.065-0.196,0.116-0.443,0.183-0.627c-0.248,0.065-0.562,0.065-0.81,0.118
		c0.066,0,0.131,0,0.183,0c0,0.065,0,0.195,0,0.261c-0.261,0-0.183,0.052-0.183-0.261
		C143.657,108.274,143.54,107.764,143.474,107.452z"/>
	<path class="st1" d="M154.728,307.109c0.312,0,0.705,0,1.005,0.051c0,0.065,0,0.131-0.052,0.197c0.496,0-0.065,0.69-0.196,0.822
		C155.485,307.865,154.845,307.357,154.728,307.109z"/>
	<path d="M346.46,310.45c-0.053,0.443-0.496,2.283,0.273,2.283C347.869,312.669,346.853,310.763,346.46,310.45z"/>
	<path class="st1" d="M344.894,349.052c0.064,0,0.131,0,0.184,0C345.025,349.052,344.958,349.052,344.894,349.052z"/>
	<path class="st7" d="M198.761,49.998c0,0.053,0,0.118,0,0.184C198.761,50.116,198.761,50.05,198.761,49.998z"/>
	<path class="st7" d="M132.835,66.003c0,0.053,0,0.118,0,0.184C132.835,66.121,132.835,66.055,132.835,66.003z"/>
	<path class="st1" d="M113.644,155.231c0,0.053,0,0.117,0,0.183C113.644,155.348,113.644,155.284,113.644,155.231z"/>
	<path class="st8" d="M495.707,422.253c-7.551,0-14.13,6.129-14.13,14.125c0,7.846,6.427,14.125,14.13,14.125
		c7.767,0,14.125-6.353,14.125-14.125C509.832,428.382,503.332,422.253,495.707,422.253z"/>
	<path class="st8" d="M495.664,424.53c6.502,0,11.887,5.23,11.887,11.815c0,6.459-5.311,11.877-11.887,11.877
		c-6.498,0-11.809-5.307-11.809-11.877C483.856,429.691,489.239,424.53,495.664,424.53z"/>
	<path class="st8" d="M490.401,444.3h3.06v-6.347h2.765c1.123,0,1.419,0.444,1.647,1.341c0,0.223,0.519,4.26,0.598,5.006h3.363
		c-0.449-0.746-0.676-2.914-0.821-4.188c-0.301-2.016-0.453-3.436-2.621-3.582c1.126-0.373,2.993-0.973,2.993-3.887
		c0-4.189-3.658-4.189-5.531-4.189h-5.451V444.3z M493.389,430.997h2.538c0.821,0,2.316,0,2.316,2.168
		c0,0.824-0.372,2.24-2.392,2.24h-2.463V430.997z"/>
	<path class="st9" d="M495.707,422.253c-7.551,0-14.13,6.129-14.13,14.125c0,7.846,6.427,14.125,14.13,14.125
		c7.767,0,14.125-6.353,14.125-14.125C509.832,428.382,503.332,422.253,495.707,422.253z"/>
	<path class="st1" d="M495.664,424.53c6.502,0,11.887,5.23,11.887,11.815c0,6.459-5.311,11.877-11.887,11.877
		c-6.498,0-11.809-5.307-11.809-11.877C483.856,429.691,489.239,424.53,495.664,424.53z"/>
	<path class="st9" d="M490.401,444.3h3.06v-6.347h2.765c1.123,0,1.419,0.444,1.647,1.341c0,0.223,0.519,4.26,0.598,5.006h3.363
		c-0.449-0.746-0.676-2.914-0.821-4.188c-0.301-2.016-0.453-3.436-2.621-3.582c1.126-0.373,2.993-0.973,2.993-3.887
		c0-4.189-3.658-4.189-5.531-4.189h-5.451V444.3z M493.389,430.997h2.538c0.821,0,2.316,0,2.316,2.168
		c0,0.824-0.372,2.24-2.392,2.24h-2.463V430.997z"/>
</g>
</svg>